<?xml version="1.0" encoding="UTF-8" standalone="no"?><svg xmlns="http://www.w3.org/2000/svg" xmlns:xlink="http://www.w3.org/1999/xlink" contentScriptType="application/ecmascript" contentStyleType="text/css" height="242px" preserveAspectRatio="none" style="width:577px;height:242px;" version="1.1" viewBox="0 0 577 242" width="577px" zoomAndPan="magnify"><defs><filter height="300%" id="flhoxz2p5w6za" width="300%" x="-1" y="-1"><feGaussianBlur result="blurOut" stdDeviation="2.0"/><feColorMatrix in="blurOut" result="blurOut2" type="matrix" values="0 0 0 0 0 0 0 0 0 0 0 0 0 0 0 0 0 0 .4 0"/><feOffset dx="4.0" dy="4.0" in="blurOut2" result="blurOut3"/><feBlend in="SourceGraphic" in2="blurOut3" mode="normal"/></filter></defs><g><!--cluster com.example.AlmacenMotocicletas.services--><polygon fill="#FFFFFF" filter="url(#flhoxz2p5w6za)" points="22,24,338,24,345,47.6094,555,47.6094,555,193,22,193,22,24" style="stroke: #000000; stroke-width: 1.5;"/><line style="stroke: #000000; stroke-width: 1.5;" x1="22" x2="345" y1="47.6094" y2="47.6094"/><text fill="#000000" font-family="sans-serif" font-size="14" font-weight="bold" lengthAdjust="spacingAndGlyphs" textLength="310" x="26" y="40.5332">com.example.AlmacenMotocicletas.services</text><!--class com.example.AlmacenMotocicletas.services.MotocicletaActionsService--><a href="MotocicletaActionsService.html" target="_top" xlink:actuate="onRequest" xlink:show="new" xlink:title="MotocicletaActionsService.html" xlink:type="simple"><rect fill="#FEFECE" filter="url(#flhoxz2p5w6za)" height="89.5078" id="com.example.AlmacenMotocicletas.services.MotocicletaActionsService" style="stroke: #A80036; stroke-width: 1.5;" width="243" x="295.5" y="73.5"/><ellipse cx="342.25" cy="89.5" fill="#ADD1B2" rx="11" ry="11" style="stroke: #A80036; stroke-width: 1.0;"/><path d="M345.0156,85.375 Q345.1719,85.1563 345.3594,85.0469 Q345.5469,84.9375 345.7656,84.9375 Q346.1406,84.9375 346.375,85.2031 Q346.6094,85.4531 346.6094,86.0625 L346.6094,87.5156 Q346.6094,88.125 346.375,88.3906 Q346.1406,88.6563 345.7656,88.6563 Q345.4219,88.6563 345.2188,88.4531 Q345.0156,88.2656 344.9063,87.75 Q344.8594,87.3906 344.6719,87.2031 Q344.3438,86.8281 343.7344,86.6094 Q343.125,86.3906 342.5,86.3906 Q341.7344,86.3906 341.0938,86.7188 Q340.4688,87.0469 339.9688,87.7969 Q339.4844,88.5469 339.4844,89.5781 L339.4844,90.6719 Q339.4844,91.9063 340.375,92.7344 Q341.2656,93.5469 342.8594,93.5469 Q343.7969,93.5469 344.4531,93.2969 Q344.8438,93.1406 345.2656,92.7031 Q345.5313,92.4375 345.6719,92.3594 Q345.8281,92.2813 346.0313,92.2813 Q346.3594,92.2813 346.6094,92.5469 Q346.875,92.7969 346.875,93.1406 Q346.875,93.4844 346.5313,93.8906 Q346.0313,94.4688 345.2344,94.7969 Q344.1563,95.25 342.8594,95.25 Q341.3438,95.25 340.1406,94.625 Q339.1563,94.125 338.4688,93.0625 Q337.7813,91.9844 337.7813,90.7031 L337.7813,89.5469 Q337.7813,88.2188 338.3906,87.0781 Q339.0156,85.9219 340.1094,85.3125 Q341.2031,84.6875 342.4375,84.6875 Q343.1719,84.6875 343.8125,84.8594 Q344.4688,85.0156 345.0156,85.375 Z "/><text fill="#000000" font-family="sans-serif" font-size="12" lengthAdjust="spacingAndGlyphs" textLength="141" x="362.75" y="94.4102">MotocicletaActionsService</text><line style="stroke: #A80036; stroke-width: 1.5;" x1="296.5" x2="537.5" y1="105.5" y2="105.5"/><line style="stroke: #A80036; stroke-width: 1.5;" x1="296.5" x2="537.5" y1="113.5" y2="113.5"/><ellipse cx="306.5" cy="125.918" fill="#84BE84" rx="3" ry="3" style="stroke: #038048; stroke-width: 1.0;"/><text fill="#000000" font-family="sans-serif" font-size="11" lengthAdjust="spacingAndGlyphs" textLength="204" x="315.5" y="128.9189">getByMarca(String): List&lt;MotocicletaDTO&gt;</text><ellipse cx="306.5" cy="139.7539" fill="#84BE84" rx="3" ry="3" style="stroke: #038048; stroke-width: 1.0;"/><text fill="#000000" font-family="sans-serif" font-size="11" lengthAdjust="spacingAndGlyphs" textLength="200" x="315.5" y="142.7549">getByLinea(String): List&lt;MotocicletaDTO&gt;</text><ellipse cx="306.5" cy="153.5898" fill="#84BE84" rx="3" ry="3" style="stroke: #038048; stroke-width: 1.0;"/><text fill="#000000" font-family="sans-serif" font-size="11" lengthAdjust="spacingAndGlyphs" textLength="217" x="315.5" y="156.5908">getByCilindraje(String): List&lt;MotocicletaDTO&gt;</text></a><!--class com.example.AlmacenMotocicletas.services.MotocicletaServiceCRUD--><a href="MotocicletaServiceCRUD.html" target="_top" xlink:actuate="onRequest" xlink:show="new" xlink:title="MotocicletaServiceCRUD.html" xlink:type="simple"><rect fill="#FEFECE" filter="url(#flhoxz2p5w6za)" height="117.1797" id="com.example.AlmacenMotocicletas.services.MotocicletaServiceCRUD" style="stroke: #A80036; stroke-width: 1.5;" width="222" x="38" y="60"/><ellipse cx="76.85" cy="76" fill="#ADD1B2" rx="11" ry="11" style="stroke: #A80036; stroke-width: 1.0;"/><path d="M79.6156,71.875 Q79.7719,71.6563 79.9594,71.5469 Q80.1469,71.4375 80.3656,71.4375 Q80.7406,71.4375 80.975,71.7031 Q81.2094,71.9531 81.2094,72.5625 L81.2094,74.0156 Q81.2094,74.625 80.975,74.8906 Q80.7406,75.1563 80.3656,75.1563 Q80.0219,75.1563 79.8188,74.9531 Q79.6156,74.7656 79.5063,74.25 Q79.4594,73.8906 79.2719,73.7031 Q78.9438,73.3281 78.3344,73.1094 Q77.725,72.8906 77.1,72.8906 Q76.3344,72.8906 75.6938,73.2188 Q75.0688,73.5469 74.5688,74.2969 Q74.0844,75.0469 74.0844,76.0781 L74.0844,77.1719 Q74.0844,78.4063 74.975,79.2344 Q75.8656,80.0469 77.4594,80.0469 Q78.3969,80.0469 79.0531,79.7969 Q79.4438,79.6406 79.8656,79.2031 Q80.1313,78.9375 80.2719,78.8594 Q80.4281,78.7813 80.6313,78.7813 Q80.9594,78.7813 81.2094,79.0469 Q81.475,79.2969 81.475,79.6406 Q81.475,79.9844 81.1313,80.3906 Q80.6313,80.9688 79.8344,81.2969 Q78.7563,81.75 77.4594,81.75 Q75.9438,81.75 74.7406,81.125 Q73.7563,80.625 73.0688,79.5625 Q72.3813,78.4844 72.3813,77.2031 L72.3813,76.0469 Q72.3813,74.7188 72.9906,73.5781 Q73.6156,72.4219 74.7094,71.8125 Q75.8031,71.1875 77.0375,71.1875 Q77.7719,71.1875 78.4125,71.3594 Q79.0688,71.5156 79.6156,71.875 Z "/><text fill="#000000" font-family="sans-serif" font-size="12" lengthAdjust="spacingAndGlyphs" textLength="137" x="96.15" y="80.9102">MotocicletaServiceCRUD</text><line style="stroke: #A80036; stroke-width: 1.5;" x1="39" x2="259" y1="92" y2="92"/><line style="stroke: #A80036; stroke-width: 1.5;" x1="39" x2="259" y1="100" y2="100"/><ellipse cx="49" cy="112.418" fill="#84BE84" rx="3" ry="3" style="stroke: #038048; stroke-width: 1.0;"/><text fill="#000000" font-family="sans-serif" font-size="11" lengthAdjust="spacingAndGlyphs" textLength="145" x="58" y="115.4189">getAll(): List&lt;MotocicletaDTO&gt;</text><ellipse cx="49" cy="126.2539" fill="#84BE84" rx="3" ry="3" style="stroke: #038048; stroke-width: 1.0;"/><text fill="#000000" font-family="sans-serif" font-size="11" lengthAdjust="spacingAndGlyphs" textLength="153" x="58" y="129.2549">getById(String): MotocicletaDTO</text><ellipse cx="49" cy="140.0898" fill="#84BE84" rx="3" ry="3" style="stroke: #038048; stroke-width: 1.0;"/><text fill="#000000" font-family="sans-serif" font-size="11" lengthAdjust="spacingAndGlyphs" textLength="193" x="58" y="143.0908">create(MotocicletaDTO): RespuestaDTO</text><ellipse cx="49" cy="153.9258" fill="#84BE84" rx="3" ry="3" style="stroke: #038048; stroke-width: 1.0;"/><text fill="#000000" font-family="sans-serif" font-size="11" lengthAdjust="spacingAndGlyphs" textLength="196" x="58" y="156.9268">modify(MotocicletaDTO): MotocicletaDTO</text><ellipse cx="49" cy="167.7617" fill="#84BE84" rx="3" ry="3" style="stroke: #038048; stroke-width: 1.0;"/><text fill="#000000" font-family="sans-serif" font-size="11" lengthAdjust="spacingAndGlyphs" textLength="91" x="58" y="170.7627">delete(String): void</text></a><text fill="#888888" font-family="sans-serif" font-size="10" lengthAdjust="spacingAndGlyphs" textLength="190" x="199.5" y="229.3809">UMLDoclet 2.0.10, PlantUML 1.2019.08</text><!--
@startuml
    namespace com.example.AlmacenMotocicletas.services {

        class MotocicletaActionsService [[MotocicletaActionsService.html]] {
            +getByMarca(String): List<MotocicletaDTO>
            +getByLinea(String): List<MotocicletaDTO>
            +getByCilindraje(String): List<MotocicletaDTO>
        }

        class MotocicletaServiceCRUD [[MotocicletaServiceCRUD.html]] {
            +getAll(): List<MotocicletaDTO>
            +getById(String): MotocicletaDTO
            +create(MotocicletaDTO): RespuestaDTO
            +modify(MotocicletaDTO): MotocicletaDTO
            +delete(String): void
        }

    }

    center footer UMLDoclet 2.0.10, PlantUML 1.2019.08
@enduml

PlantUML version 1.2019.08(Sat Jul 13 14:25:14 COT 2019)
(APACHE source distribution)
Java Runtime: Java(TM) SE Runtime Environment
JVM: Java HotSpot(TM) 64-Bit Server VM
Java Version: 11.0.11+9-LTS-194
Operating System: Windows 10
OS Version: 10.0
Default Encoding: Cp1252
Language: es
Country: CO
--></g></svg>