<?xml version="1.0" encoding="UTF-8" standalone="no"?><svg xmlns="http://www.w3.org/2000/svg" xmlns:xlink="http://www.w3.org/1999/xlink" contentScriptType="application/ecmascript" contentStyleType="text/css" height="336px" preserveAspectRatio="none" style="width:368px;height:336px;" version="1.1" viewBox="0 0 368 336" width="368px" zoomAndPan="magnify"><defs><filter height="300%" id="fi4zo2wdel0u5" width="300%" x="-1" y="-1"><feGaussianBlur result="blurOut" stdDeviation="2.0"/><feColorMatrix in="blurOut" result="blurOut2" type="matrix" values="0 0 0 0 0 0 0 0 0 0 0 0 0 0 0 0 0 0 .4 0"/><feOffset dx="4.0" dy="4.0" in="blurOut2" result="blurOut3"/><feBlend in="SourceGraphic" in2="blurOut3" mode="normal"/></filter></defs><g><!--class com.example.AlmacenMotocicletas.repositories.MotocicletaRepository--><a href="MotocicletaRepository.html" target="_top" xlink:actuate="onRequest" xlink:show="new" xlink:title="MotocicletaRepository.html" xlink:type="simple"><rect fill="#FEFECE" filter="url(#fi4zo2wdel0u5)" height="89.6953" id="com.example.AlmacenMotocicletas.repositories.MotocicletaRepository" style="stroke: #A80036; stroke-width: 1.5;" width="291" x="34.5" y="213"/><ellipse cx="67.05" cy="233.0938" fill="#B4A7E5" rx="11" ry="11" style="stroke: #A80036; stroke-width: 1.0;"/><path d="M68.0031,229.7344 L68.0031,236.3906 L69.7219,236.3906 Q70.3313,236.3906 70.5969,236.625 Q70.8625,236.8594 70.8625,237.25 Q70.8625,237.625 70.5969,237.8594 Q70.3313,238.0938 69.7219,238.0938 L64.5813,238.0938 Q63.9719,238.0938 63.7063,237.8594 Q63.4406,237.625 63.4406,237.2344 Q63.4406,236.8594 63.7063,236.625 Q63.9719,236.3906 64.5813,236.3906 L66.3,236.3906 L66.3,229.7344 L64.5813,229.7344 Q63.9719,229.7344 63.7063,229.5 Q63.4406,229.2656 63.4406,228.875 Q63.4406,228.5 63.7063,228.2656 Q63.9719,228.0313 64.5813,228.0313 L69.7219,228.0313 Q70.3313,228.0313 70.5969,228.2656 Q70.8625,228.5 70.8625,228.875 Q70.8625,229.2656 70.5969,229.5 Q70.3313,229.7344 69.7219,229.7344 L68.0031,229.7344 Z "/><text fill="#000000" font-family="sans-serif" font-size="14" font-style="italic" lengthAdjust="spacingAndGlyphs" textLength="140" x="124.95" y="232.5332">MotocicletaRepository</text><text fill="#000000" font-family="sans-serif" font-size="10" font-style="italic" lengthAdjust="spacingAndGlyphs" textLength="220" x="84.95" y="245.9902">com.example.AlmacenMotocicletas.repositories</text><line style="stroke: #A80036; stroke-width: 1.5;" x1="35.5" x2="324.5" y1="253.1875" y2="253.1875"/><ellipse cx="45.5" cy="265.6055" fill="#84BE84" rx="3" ry="3" style="stroke: #038048; stroke-width: 1.0;"/><text fill="#000000" font-family="sans-serif" font-size="11" font-style="italic" lengthAdjust="spacingAndGlyphs" textLength="248" x="54.5" y="268.6064">findMotocicletaByMarca(String): List&lt;Motocicleta&gt;</text><ellipse cx="45.5" cy="279.4414" fill="#84BE84" rx="3" ry="3" style="stroke: #038048; stroke-width: 1.0;"/><text fill="#000000" font-family="sans-serif" font-size="11" font-style="italic" lengthAdjust="spacingAndGlyphs" textLength="244" x="54.5" y="282.4424">findMotocicletaByLinea(String): List&lt;Motocicleta&gt;</text><ellipse cx="45.5" cy="293.2773" fill="#84BE84" rx="3" ry="3" style="stroke: #038048; stroke-width: 1.0;"/><text fill="#000000" font-family="sans-serif" font-size="11" font-style="italic" lengthAdjust="spacingAndGlyphs" textLength="265" x="54.5" y="296.2783">findMotocicletaByCilindraje(String): List&lt;Motocicleta&gt;</text></a><!--class org.springframework.data.mongodb.repository.MongoRepository--><rect fill="#FEFECE" filter="url(#fi4zo2wdel0u5)" height="145.0391" id="org.springframework.data.mongodb.repository.MongoRepository" style="stroke: #A80036; stroke-width: 1.5;" width="348" x="6" y="8"/><ellipse cx="21" cy="28.0938" fill="#B4A7E5" rx="11" ry="11" style="stroke: #A80036; stroke-width: 1.0;"/><path d="M21.9531,24.7344 L21.9531,31.3906 L23.6719,31.3906 Q24.2813,31.3906 24.5469,31.625 Q24.8125,31.8594 24.8125,32.25 Q24.8125,32.625 24.5469,32.8594 Q24.2813,33.0938 23.6719,33.0938 L18.5313,33.0938 Q17.9219,33.0938 17.6563,32.8594 Q17.3906,32.625 17.3906,32.2344 Q17.3906,31.8594 17.6563,31.625 Q17.9219,31.3906 18.5313,31.3906 L20.25,31.3906 L20.25,24.7344 L18.5313,24.7344 Q17.9219,24.7344 17.6563,24.5 Q17.3906,24.2656 17.3906,23.875 Q17.3906,23.5 17.6563,23.2656 Q17.9219,23.0313 18.5313,23.0313 L23.6719,23.0313 Q24.2813,23.0313 24.5469,23.2656 Q24.8125,23.5 24.8125,23.875 Q24.8125,24.2656 24.5469,24.5 Q24.2813,24.7344 23.6719,24.7344 L21.9531,24.7344 Z "/><text fill="#000000" font-family="sans-serif" font-size="14" font-style="italic" lengthAdjust="spacingAndGlyphs" textLength="112" x="85.5" y="27.5332">MongoRepository</text><text fill="#000000" font-family="sans-serif" font-size="10" font-style="italic" lengthAdjust="spacingAndGlyphs" textLength="213" x="35" y="40.9902">org.springframework.data.mongodb.repository</text><rect fill="#FFFFFF" height="17.0938" style="stroke: #000000; stroke-width: 1.0; stroke-dasharray: 2.0,2.0;" width="101" x="256" y="5"/><text fill="#000000" font-family="sans-serif" font-size="12" font-style="italic" lengthAdjust="spacingAndGlyphs" textLength="99" x="257" y="18.457">Motocicleta, String</text><line style="stroke: #A80036; stroke-width: 1.5;" x1="7" x2="353" y1="48.1875" y2="48.1875"/><ellipse cx="17" cy="60.6055" fill="#84BE84" rx="3" ry="3" style="stroke: #038048; stroke-width: 1.0;"/><text fill="#000000" font-family="sans-serif" font-size="11" font-style="italic" lengthAdjust="spacingAndGlyphs" textLength="248" x="26" y="63.6064">saveAll(Iterable&lt;S extends T&gt;): List&lt;S extends T&gt;</text><ellipse cx="17" cy="74.4414" fill="#84BE84" rx="3" ry="3" style="stroke: #038048; stroke-width: 1.0;"/><text fill="#000000" font-family="sans-serif" font-size="11" font-style="italic" lengthAdjust="spacingAndGlyphs" textLength="82" x="26" y="77.4424">findAll(): List&lt;T&gt;</text><ellipse cx="17" cy="88.2773" fill="#84BE84" rx="3" ry="3" style="stroke: #038048; stroke-width: 1.0;"/><text fill="#000000" font-family="sans-serif" font-size="11" font-style="italic" lengthAdjust="spacingAndGlyphs" textLength="102" x="26" y="91.2783">findAll(Sort): List&lt;T&gt;</text><ellipse cx="17" cy="102.1133" fill="#84BE84" rx="3" ry="3" style="stroke: #038048; stroke-width: 1.0;"/><text fill="#000000" font-family="sans-serif" font-size="11" font-style="italic" lengthAdjust="spacingAndGlyphs" textLength="160" x="26" y="105.1143">insert(S extends T): S extends T</text><ellipse cx="17" cy="115.9492" fill="#84BE84" rx="3" ry="3" style="stroke: #038048; stroke-width: 1.0;"/><text fill="#000000" font-family="sans-serif" font-size="11" font-style="italic" lengthAdjust="spacingAndGlyphs" textLength="240" x="26" y="118.9502">insert(Iterable&lt;S extends T&gt;): List&lt;S extends T&gt;</text><ellipse cx="17" cy="129.7852" fill="#84BE84" rx="3" ry="3" style="stroke: #038048; stroke-width: 1.0;"/><text fill="#000000" font-family="sans-serif" font-size="11" font-style="italic" lengthAdjust="spacingAndGlyphs" textLength="248" x="26" y="132.7861">findAll(Example&lt;S extends T&gt;): List&lt;S extends T&gt;</text><ellipse cx="17" cy="143.6211" fill="#84BE84" rx="3" ry="3" style="stroke: #038048; stroke-width: 1.0;"/><text fill="#000000" font-family="sans-serif" font-size="11" font-style="italic" lengthAdjust="spacingAndGlyphs" textLength="274" x="26" y="146.6221">findAll(Example&lt;S extends T&gt;, Sort): List&lt;S extends T&gt;</text><!--link org.springframework.data.mongodb.repository.MongoRepository to com.example.AlmacenMotocicletas.repositories.MotocicletaRepository--><path d="M180,173.23 C180,186.99 180,200.62 180,212.76 " fill="none" id="org.springframework.data.mongodb.repository.MongoRepository-com.example.AlmacenMotocicletas.repositories.MotocicletaRepository" style="stroke: #A80036; stroke-width: 1.0;"/><polygon fill="none" points="173,173.14,180,153.14,187,173.14,173,173.14" style="stroke: #A80036; stroke-width: 1.0;"/><text fill="#888888" font-family="sans-serif" font-size="10" lengthAdjust="spacingAndGlyphs" textLength="190" x="91" y="323.3809">UMLDoclet 2.0.10, PlantUML 1.2019.08</text><!--
@startuml
    set namespaceSeparator none
    hide empty fields
    hide empty methods

    interface "<size:14>MotocicletaRepository\n<size:10>com.example.AlmacenMotocicletas.repositories" as com.example.AlmacenMotocicletas.repositories.MotocicletaRepository [[MotocicletaRepository.html]] {
        {abstract} +findMotocicletaByMarca(String): List<Motocicleta>
        {abstract} +findMotocicletaByLinea(String): List<Motocicleta>
        {abstract} +findMotocicletaByCilindraje(String): List<Motocicleta>
    }

    interface "<size:14>MongoRepository\n<size:10>org.springframework.data.mongodb.repository" as org.springframework.data.mongodb.repository.MongoRepository<Motocicleta, String> {
        {abstract} +saveAll(Iterable<S extends T>): List<S extends T>
        {abstract} +findAll(): List<T>
        {abstract} +findAll(Sort): List<T>
        {abstract} +insert(S extends T): S extends T
        {abstract} +insert(Iterable<S extends T>): List<S extends T>
        {abstract} +findAll(Example<S extends T>): List<S extends T>
        {abstract} +findAll(Example<S extends T>, Sort): List<S extends T>
    }

    org.springframework.data.mongodb.repository.MongoRepository <|- - com.example.AlmacenMotocicletas.repositories.MotocicletaRepository

    center footer UMLDoclet 2.0.10, PlantUML 1.2019.08
@enduml

PlantUML version 1.2019.08(Sat Jul 13 14:25:14 COT 2019)
(APACHE source distribution)
Java Runtime: Java(TM) SE Runtime Environment
JVM: Java HotSpot(TM) 64-Bit Server VM
Java Version: 11.0.11+9-LTS-194
Operating System: Windows 10
OS Version: 10.0
Default Encoding: Cp1252
Language: es
Country: CO
--></g></svg>