<?xml version="1.0" encoding="UTF-8" standalone="no"?><svg xmlns="http://www.w3.org/2000/svg" xmlns:xlink="http://www.w3.org/1999/xlink" contentScriptType="application/ecmascript" contentStyleType="text/css" height="436px" preserveAspectRatio="none" style="width:400px;height:436px;" version="1.1" viewBox="0 0 400 436" width="400px" zoomAndPan="magnify"><defs><filter height="300%" id="f1v6yy8a62glgo" width="300%" x="-1" y="-1"><feGaussianBlur result="blurOut" stdDeviation="2.0"/><feColorMatrix in="blurOut" result="blurOut2" type="matrix" values="0 0 0 0 0 0 0 0 0 0 0 0 0 0 0 0 0 0 .4 0"/><feOffset dx="4.0" dy="4.0" in="blurOut2" result="blurOut3"/><feBlend in="SourceGraphic" in2="blurOut3" mode="normal"/></filter></defs><g><!--cluster com.example.AlmacenMotocicletas.repositories--><polygon fill="#FFFFFF" filter="url(#f1v6yy8a62glgo)" points="27,245,368,245,375,268.6094,378,268.6094,378,387,27,387,27,245" style="stroke: #000000; stroke-width: 1.5;"/><line style="stroke: #000000; stroke-width: 1.5;" x1="27" x2="375" y1="268.6094" y2="268.6094"/><text fill="#000000" font-family="sans-serif" font-size="14" font-weight="bold" lengthAdjust="spacingAndGlyphs" textLength="335" x="31" y="261.5332">com.example.AlmacenMotocicletas.repositories</text><!--cluster org.springframework.data.mongodb.repository--><polygon fill="#FFFFFF" filter="url(#f1v6yy8a62glgo)" points="22,24,355,24,362,47.6094,365,47.6094,365,221,22,221,22,24" style="stroke: #000000; stroke-width: 1.5;"/><line style="stroke: #000000; stroke-width: 1.5;" x1="22" x2="362" y1="47.6094" y2="47.6094"/><text fill="#000000" font-family="sans-serif" font-size="14" font-weight="bold" lengthAdjust="spacingAndGlyphs" textLength="327" x="26" y="40.5332">org.springframework.data.mongodb.repository</text><!--class com.example.AlmacenMotocicletas.repositories.MotocicletaRepository--><a href="MotocicletaRepository.html" target="_top" xlink:actuate="onRequest" xlink:show="new" xlink:title="MotocicletaRepository.html" xlink:type="simple"><rect fill="#FEFECE" filter="url(#f1v6yy8a62glgo)" height="89.5078" id="com.example.AlmacenMotocicletas.repositories.MotocicletaRepository" style="stroke: #A80036; stroke-width: 1.5;" width="291" x="47.5" y="281"/><ellipse cx="128.75" cy="297" fill="#B4A7E5" rx="11" ry="11" style="stroke: #A80036; stroke-width: 1.0;"/><path d="M129.7031,293.6406 L129.7031,300.2969 L131.4219,300.2969 Q132.0313,300.2969 132.2969,300.5313 Q132.5625,300.7656 132.5625,301.1563 Q132.5625,301.5313 132.2969,301.7656 Q132.0313,302 131.4219,302 L126.2813,302 Q125.6719,302 125.4063,301.7656 Q125.1406,301.5313 125.1406,301.1406 Q125.1406,300.7656 125.4063,300.5313 Q125.6719,300.2969 126.2813,300.2969 L128,300.2969 L128,293.6406 L126.2813,293.6406 Q125.6719,293.6406 125.4063,293.4063 Q125.1406,293.1719 125.1406,292.7813 Q125.1406,292.4063 125.4063,292.1719 Q125.6719,291.9375 126.2813,291.9375 L131.4219,291.9375 Q132.0313,291.9375 132.2969,292.1719 Q132.5625,292.4063 132.5625,292.7813 Q132.5625,293.1719 132.2969,293.4063 Q132.0313,293.6406 131.4219,293.6406 L129.7031,293.6406 Z "/><text fill="#000000" font-family="sans-serif" font-size="12" font-style="italic" lengthAdjust="spacingAndGlyphs" textLength="120" x="149.25" y="301.9102">MotocicletaRepository</text><line style="stroke: #A80036; stroke-width: 1.5;" x1="48.5" x2="337.5" y1="313" y2="313"/><line style="stroke: #A80036; stroke-width: 1.5;" x1="48.5" x2="337.5" y1="321" y2="321"/><ellipse cx="58.5" cy="333.418" fill="#84BE84" rx="3" ry="3" style="stroke: #038048; stroke-width: 1.0;"/><text fill="#000000" font-family="sans-serif" font-size="11" font-style="italic" lengthAdjust="spacingAndGlyphs" textLength="248" x="67.5" y="336.4189">findMotocicletaByMarca(String): List&lt;Motocicleta&gt;</text><ellipse cx="58.5" cy="347.2539" fill="#84BE84" rx="3" ry="3" style="stroke: #038048; stroke-width: 1.0;"/><text fill="#000000" font-family="sans-serif" font-size="11" font-style="italic" lengthAdjust="spacingAndGlyphs" textLength="244" x="67.5" y="350.2549">findMotocicletaByLinea(String): List&lt;Motocicleta&gt;</text><ellipse cx="58.5" cy="361.0898" fill="#84BE84" rx="3" ry="3" style="stroke: #038048; stroke-width: 1.0;"/><text fill="#000000" font-family="sans-serif" font-size="11" font-style="italic" lengthAdjust="spacingAndGlyphs" textLength="265" x="67.5" y="364.0908">findMotocicletaByCilindraje(String): List&lt;Motocicleta&gt;</text></a><!--class org.springframework.data.mongodb.repository.MongoRepository--><rect fill="#FEFECE" filter="url(#f1v6yy8a62glgo)" height="144.8516" id="org.springframework.data.mongodb.repository.MongoRepository" style="stroke: #A80036; stroke-width: 1.5;" width="300" x="43" y="60"/><ellipse cx="125.75" cy="76" fill="#B4A7E5" rx="11" ry="11" style="stroke: #A80036; stroke-width: 1.0;"/><path d="M126.7031,72.6406 L126.7031,79.2969 L128.4219,79.2969 Q129.0313,79.2969 129.2969,79.5313 Q129.5625,79.7656 129.5625,80.1563 Q129.5625,80.5313 129.2969,80.7656 Q129.0313,81 128.4219,81 L123.2813,81 Q122.6719,81 122.4063,80.7656 Q122.1406,80.5313 122.1406,80.1406 Q122.1406,79.7656 122.4063,79.5313 Q122.6719,79.2969 123.2813,79.2969 L125,79.2969 L125,72.6406 L123.2813,72.6406 Q122.6719,72.6406 122.4063,72.4063 Q122.1406,72.1719 122.1406,71.7813 Q122.1406,71.4063 122.4063,71.1719 Q122.6719,70.9375 123.2813,70.9375 L128.4219,70.9375 Q129.0313,70.9375 129.2969,71.1719 Q129.5625,71.4063 129.5625,71.7813 Q129.5625,72.1719 129.2969,72.4063 Q129.0313,72.6406 128.4219,72.6406 L126.7031,72.6406 Z "/><text fill="#000000" font-family="sans-serif" font-size="12" font-style="italic" lengthAdjust="spacingAndGlyphs" textLength="96" x="146.25" y="80.9102">MongoRepository</text><rect fill="#FFFFFF" height="17.0938" style="stroke: #000000; stroke-width: 1.0; stroke-dasharray: 2.0,2.0;" width="28" x="318" y="57"/><text fill="#000000" font-family="sans-serif" font-size="12" font-style="italic" lengthAdjust="spacingAndGlyphs" textLength="26" x="319" y="70.457">T, ID</text><line style="stroke: #A80036; stroke-width: 1.5;" x1="44" x2="342" y1="92" y2="92"/><line style="stroke: #A80036; stroke-width: 1.5;" x1="44" x2="342" y1="100" y2="100"/><ellipse cx="54" cy="112.418" fill="#84BE84" rx="3" ry="3" style="stroke: #038048; stroke-width: 1.0;"/><text fill="#000000" font-family="sans-serif" font-size="11" font-style="italic" lengthAdjust="spacingAndGlyphs" textLength="248" x="63" y="115.4189">saveAll(Iterable&lt;S extends T&gt;): List&lt;S extends T&gt;</text><ellipse cx="54" cy="126.2539" fill="#84BE84" rx="3" ry="3" style="stroke: #038048; stroke-width: 1.0;"/><text fill="#000000" font-family="sans-serif" font-size="11" font-style="italic" lengthAdjust="spacingAndGlyphs" textLength="82" x="63" y="129.2549">findAll(): List&lt;T&gt;</text><ellipse cx="54" cy="140.0898" fill="#84BE84" rx="3" ry="3" style="stroke: #038048; stroke-width: 1.0;"/><text fill="#000000" font-family="sans-serif" font-size="11" font-style="italic" lengthAdjust="spacingAndGlyphs" textLength="102" x="63" y="143.0908">findAll(Sort): List&lt;T&gt;</text><ellipse cx="54" cy="153.9258" fill="#84BE84" rx="3" ry="3" style="stroke: #038048; stroke-width: 1.0;"/><text fill="#000000" font-family="sans-serif" font-size="11" font-style="italic" lengthAdjust="spacingAndGlyphs" textLength="160" x="63" y="156.9268">insert(S extends T): S extends T</text><ellipse cx="54" cy="167.7617" fill="#84BE84" rx="3" ry="3" style="stroke: #038048; stroke-width: 1.0;"/><text fill="#000000" font-family="sans-serif" font-size="11" font-style="italic" lengthAdjust="spacingAndGlyphs" textLength="240" x="63" y="170.7627">insert(Iterable&lt;S extends T&gt;): List&lt;S extends T&gt;</text><ellipse cx="54" cy="181.5977" fill="#84BE84" rx="3" ry="3" style="stroke: #038048; stroke-width: 1.0;"/><text fill="#000000" font-family="sans-serif" font-size="11" font-style="italic" lengthAdjust="spacingAndGlyphs" textLength="248" x="63" y="184.5986">findAll(Example&lt;S extends T&gt;): List&lt;S extends T&gt;</text><ellipse cx="54" cy="195.4336" fill="#84BE84" rx="3" ry="3" style="stroke: #038048; stroke-width: 1.0;"/><text fill="#000000" font-family="sans-serif" font-size="11" font-style="italic" lengthAdjust="spacingAndGlyphs" textLength="274" x="63" y="198.4346">findAll(Example&lt;S extends T&gt;, Sort): List&lt;S extends T&gt;</text><!--link org.springframework.data.mongodb.repository.MongoRepository to com.example.AlmacenMotocicletas.repositories.MotocicletaRepository--><path d="M193,225.37 C193,244.66 193,264.16 193,280.73 " fill="none" id="org.springframework.data.mongodb.repository.MongoRepository-com.example.AlmacenMotocicletas.repositories.MotocicletaRepository" style="stroke: #A80036; stroke-width: 1.0;"/><polygon fill="none" points="186,225.08,193,205.08,200,225.08,186,225.08" style="stroke: #A80036; stroke-width: 1.0;"/><text fill="#888888" font-family="sans-serif" font-size="10" lengthAdjust="spacingAndGlyphs" textLength="190" x="111" y="423.3809">UMLDoclet 2.0.10, PlantUML 1.2019.08</text><!--
@startuml
    namespace com.example.AlmacenMotocicletas.repositories {

        interface MotocicletaRepository [[MotocicletaRepository.html]] {
            {abstract} +findMotocicletaByMarca(String): List<Motocicleta>
            {abstract} +findMotocicletaByLinea(String): List<Motocicleta>
            {abstract} +findMotocicletaByCilindraje(String): List<Motocicleta>
        }

        org.springframework.data.mongodb.repository.MongoRepository <|- - MotocicletaRepository
    }

    namespace org.springframework.data.mongodb.repository {
        interface MongoRepository<T, ID> {
            {abstract} +saveAll(Iterable<S extends T>): List<S extends T>
            {abstract} +findAll(): List<T>
            {abstract} +findAll(Sort): List<T>
            {abstract} +insert(S extends T): S extends T
            {abstract} +insert(Iterable<S extends T>): List<S extends T>
            {abstract} +findAll(Example<S extends T>): List<S extends T>
            {abstract} +findAll(Example<S extends T>, Sort): List<S extends T>
        }
    }

    center footer UMLDoclet 2.0.10, PlantUML 1.2019.08
@enduml

PlantUML version 1.2019.08(Sat Jul 13 14:25:14 COT 2019)
(APACHE source distribution)
Java Runtime: Java(TM) SE Runtime Environment
JVM: Java HotSpot(TM) 64-Bit Server VM
Java Version: 11.0.11+9-LTS-194
Operating System: Windows 10
OS Version: 10.0
Default Encoding: Cp1252
Language: es
Country: CO
--></g></svg>