<?xml version="1.0" encoding="UTF-8" standalone="no"?><svg xmlns="http://www.w3.org/2000/svg" xmlns:xlink="http://www.w3.org/1999/xlink" contentScriptType="application/ecmascript" contentStyleType="text/css" height="394px" preserveAspectRatio="none" style="width:401px;height:394px;" version="1.1" viewBox="0 0 401 394" width="401px" zoomAndPan="magnify"><defs><filter height="300%" id="f1hnjjsqbww2qd" width="300%" x="-1" y="-1"><feGaussianBlur result="blurOut" stdDeviation="2.0"/><feColorMatrix in="blurOut" result="blurOut2" type="matrix" values="0 0 0 0 0 0 0 0 0 0 0 0 0 0 0 0 0 0 .4 0"/><feOffset dx="4.0" dy="4.0" in="blurOut2" result="blurOut3"/><feBlend in="SourceGraphic" in2="blurOut3" mode="normal"/></filter></defs><g><!--cluster com.example.AlmacenMotocicletas.DTOs--><polygon fill="#FFFFFF" filter="url(#f1hnjjsqbww2qd)" points="22,24,314,24,321,47.6094,379,47.6094,379,345,22,345,22,24" style="stroke: #000000; stroke-width: 1.5;"/><line style="stroke: #000000; stroke-width: 1.5;" x1="22" x2="321" y1="47.6094" y2="47.6094"/><text fill="#000000" font-family="sans-serif" font-size="14" font-weight="bold" lengthAdjust="spacingAndGlyphs" textLength="286" x="26" y="40.5332">com.example.AlmacenMotocicletas.DTOs</text><!--class com.example.AlmacenMotocicletas.DTOs.MotocicletaDTO--><a href="MotocicletaDTO.html" target="_top" xlink:actuate="onRequest" xlink:show="new" xlink:title="MotocicletaDTO.html" xlink:type="simple"><rect fill="#FEFECE" filter="url(#f1hnjjsqbww2qd)" height="269.375" id="com.example.AlmacenMotocicletas.DTOs.MotocicletaDTO" style="stroke: #A80036; stroke-width: 1.5;" width="146" x="217" y="60"/><ellipse cx="244.6" cy="76" fill="#ADD1B2" rx="11" ry="11" style="stroke: #A80036; stroke-width: 1.0;"/><path d="M247.3656,71.875 Q247.5219,71.6563 247.7094,71.5469 Q247.8969,71.4375 248.1156,71.4375 Q248.4906,71.4375 248.725,71.7031 Q248.9594,71.9531 248.9594,72.5625 L248.9594,74.0156 Q248.9594,74.625 248.725,74.8906 Q248.4906,75.1563 248.1156,75.1563 Q247.7719,75.1563 247.5688,74.9531 Q247.3656,74.7656 247.2563,74.25 Q247.2094,73.8906 247.0219,73.7031 Q246.6938,73.3281 246.0844,73.1094 Q245.475,72.8906 244.85,72.8906 Q244.0844,72.8906 243.4438,73.2188 Q242.8188,73.5469 242.3188,74.2969 Q241.8344,75.0469 241.8344,76.0781 L241.8344,77.1719 Q241.8344,78.4063 242.725,79.2344 Q243.6156,80.0469 245.2094,80.0469 Q246.1469,80.0469 246.8031,79.7969 Q247.1938,79.6406 247.6156,79.2031 Q247.8813,78.9375 248.0219,78.8594 Q248.1781,78.7813 248.3813,78.7813 Q248.7094,78.7813 248.9594,79.0469 Q249.225,79.2969 249.225,79.6406 Q249.225,79.9844 248.8813,80.3906 Q248.3813,80.9688 247.5844,81.2969 Q246.5063,81.75 245.2094,81.75 Q243.6938,81.75 242.4906,81.125 Q241.5063,80.625 240.8188,79.5625 Q240.1313,78.4844 240.1313,77.2031 L240.1313,76.0469 Q240.1313,74.7188 240.7406,73.5781 Q241.3656,72.4219 242.4594,71.8125 Q243.5531,71.1875 244.7875,71.1875 Q245.5219,71.1875 246.1625,71.3594 Q246.8188,71.5156 247.3656,71.875 Z "/><text fill="#000000" font-family="sans-serif" font-size="12" lengthAdjust="spacingAndGlyphs" textLength="86" x="261.4" y="80.9102">MotocicletaDTO</text><line style="stroke: #A80036; stroke-width: 1.5;" x1="218" x2="362" y1="92" y2="92"/><line style="stroke: #A80036; stroke-width: 1.5;" x1="218" x2="362" y1="100" y2="100"/><ellipse cx="228" cy="112.418" fill="#84BE84" rx="3" ry="3" style="stroke: #038048; stroke-width: 1.0;"/><text fill="#000000" font-family="sans-serif" font-size="11" lengthAdjust="spacingAndGlyphs" textLength="65" x="237" y="115.4189">getId(): String</text><ellipse cx="228" cy="126.2539" fill="#84BE84" rx="3" ry="3" style="stroke: #038048; stroke-width: 1.0;"/><text fill="#000000" font-family="sans-serif" font-size="11" lengthAdjust="spacingAndGlyphs" textLength="85" x="237" y="129.2549">setId(String): void</text><ellipse cx="228" cy="140.0898" fill="#84BE84" rx="3" ry="3" style="stroke: #038048; stroke-width: 1.0;"/><text fill="#000000" font-family="sans-serif" font-size="11" lengthAdjust="spacingAndGlyphs" textLength="87" x="237" y="143.0908">getMarca(): String</text><ellipse cx="228" cy="153.9258" fill="#84BE84" rx="3" ry="3" style="stroke: #038048; stroke-width: 1.0;"/><text fill="#000000" font-family="sans-serif" font-size="11" lengthAdjust="spacingAndGlyphs" textLength="107" x="237" y="156.9268">setMarca(String): void</text><ellipse cx="228" cy="167.7617" fill="#84BE84" rx="3" ry="3" style="stroke: #038048; stroke-width: 1.0;"/><text fill="#000000" font-family="sans-serif" font-size="11" lengthAdjust="spacingAndGlyphs" textLength="83" x="237" y="170.7627">getLinea(): String</text><ellipse cx="228" cy="181.5977" fill="#84BE84" rx="3" ry="3" style="stroke: #038048; stroke-width: 1.0;"/><text fill="#000000" font-family="sans-serif" font-size="11" lengthAdjust="spacingAndGlyphs" textLength="103" x="237" y="184.5986">setLinea(String): void</text><ellipse cx="228" cy="195.4336" fill="#84BE84" rx="3" ry="3" style="stroke: #038048; stroke-width: 1.0;"/><text fill="#000000" font-family="sans-serif" font-size="11" lengthAdjust="spacingAndGlyphs" textLength="91" x="237" y="198.4346">getModelo(): String</text><ellipse cx="228" cy="209.2695" fill="#84BE84" rx="3" ry="3" style="stroke: #038048; stroke-width: 1.0;"/><text fill="#000000" font-family="sans-serif" font-size="11" lengthAdjust="spacingAndGlyphs" textLength="111" x="237" y="212.2705">setModelo(String): void</text><ellipse cx="228" cy="223.1055" fill="#84BE84" rx="3" ry="3" style="stroke: #038048; stroke-width: 1.0;"/><text fill="#000000" font-family="sans-serif" font-size="11" lengthAdjust="spacingAndGlyphs" textLength="100" x="237" y="226.1064">getCilindraje(): String</text><ellipse cx="228" cy="236.9414" fill="#84BE84" rx="3" ry="3" style="stroke: #038048; stroke-width: 1.0;"/><text fill="#000000" font-family="sans-serif" font-size="11" lengthAdjust="spacingAndGlyphs" textLength="120" x="237" y="239.9424">setCilindraje(String): void</text><ellipse cx="228" cy="250.7773" fill="#84BE84" rx="3" ry="3" style="stroke: #038048; stroke-width: 1.0;"/><text fill="#000000" font-family="sans-serif" font-size="11" lengthAdjust="spacingAndGlyphs" textLength="83" x="237" y="253.7783">getValor(): String</text><ellipse cx="228" cy="264.6133" fill="#84BE84" rx="3" ry="3" style="stroke: #038048; stroke-width: 1.0;"/><text fill="#000000" font-family="sans-serif" font-size="11" lengthAdjust="spacingAndGlyphs" textLength="103" x="237" y="267.6143">setValor(String): void</text><ellipse cx="228" cy="278.4492" fill="#84BE84" rx="3" ry="3" style="stroke: #038048; stroke-width: 1.0;"/><text fill="#000000" font-family="sans-serif" font-size="11" lengthAdjust="spacingAndGlyphs" textLength="82" x="237" y="281.4502">getColor(): String</text><ellipse cx="228" cy="292.2852" fill="#84BE84" rx="3" ry="3" style="stroke: #038048; stroke-width: 1.0;"/><text fill="#000000" font-family="sans-serif" font-size="11" lengthAdjust="spacingAndGlyphs" textLength="102" x="237" y="295.2861">setColor(String): void</text><ellipse cx="228" cy="306.1211" fill="#84BE84" rx="3" ry="3" style="stroke: #038048; stroke-width: 1.0;"/><text fill="#000000" font-family="sans-serif" font-size="11" lengthAdjust="spacingAndGlyphs" textLength="91" x="237" y="309.1221">getImagen(): String</text><ellipse cx="228" cy="319.957" fill="#84BE84" rx="3" ry="3" style="stroke: #038048; stroke-width: 1.0;"/><text fill="#000000" font-family="sans-serif" font-size="11" lengthAdjust="spacingAndGlyphs" textLength="111" x="237" y="322.958">setImagen(String): void</text></a><!--class com.example.AlmacenMotocicletas.DTOs.RespuestaDTO--><a href="RespuestaDTO.html" target="_top" xlink:actuate="onRequest" xlink:show="new" xlink:title="RespuestaDTO.html" xlink:type="simple"><rect fill="#FEFECE" filter="url(#f1hnjjsqbww2qd)" height="75.6719" id="com.example.AlmacenMotocicletas.DTOs.RespuestaDTO" style="stroke: #A80036; stroke-width: 1.5;" width="143" x="38.5" y="156.5"/><ellipse cx="64.75" cy="172.5" fill="#ADD1B2" rx="11" ry="11" style="stroke: #A80036; stroke-width: 1.0;"/><path d="M67.5156,168.375 Q67.6719,168.1563 67.8594,168.0469 Q68.0469,167.9375 68.2656,167.9375 Q68.6406,167.9375 68.875,168.2031 Q69.1094,168.4531 69.1094,169.0625 L69.1094,170.5156 Q69.1094,171.125 68.875,171.3906 Q68.6406,171.6563 68.2656,171.6563 Q67.9219,171.6563 67.7188,171.4531 Q67.5156,171.2656 67.4063,170.75 Q67.3594,170.3906 67.1719,170.2031 Q66.8438,169.8281 66.2344,169.6094 Q65.625,169.3906 65,169.3906 Q64.2344,169.3906 63.5938,169.7188 Q62.9688,170.0469 62.4688,170.7969 Q61.9844,171.5469 61.9844,172.5781 L61.9844,173.6719 Q61.9844,174.9063 62.875,175.7344 Q63.7656,176.5469 65.3594,176.5469 Q66.2969,176.5469 66.9531,176.2969 Q67.3438,176.1406 67.7656,175.7031 Q68.0313,175.4375 68.1719,175.3594 Q68.3281,175.2813 68.5313,175.2813 Q68.8594,175.2813 69.1094,175.5469 Q69.375,175.7969 69.375,176.1406 Q69.375,176.4844 69.0313,176.8906 Q68.5313,177.4688 67.7344,177.7969 Q66.6563,178.25 65.3594,178.25 Q63.8438,178.25 62.6406,177.625 Q61.6563,177.125 60.9688,176.0625 Q60.2813,174.9844 60.2813,173.7031 L60.2813,172.5469 Q60.2813,171.2188 60.8906,170.0781 Q61.5156,168.9219 62.6094,168.3125 Q63.7031,167.6875 64.9375,167.6875 Q65.6719,167.6875 66.3125,167.8594 Q66.9688,168.0156 67.5156,168.375 Z "/><text fill="#000000" font-family="sans-serif" font-size="12" lengthAdjust="spacingAndGlyphs" textLength="86" x="81.25" y="177.4102">RespuestaDTO</text><line style="stroke: #A80036; stroke-width: 1.5;" x1="39.5" x2="180.5" y1="188.5" y2="188.5"/><line style="stroke: #A80036; stroke-width: 1.5;" x1="39.5" x2="180.5" y1="196.5" y2="196.5"/><ellipse cx="49.5" cy="208.918" fill="#84BE84" rx="3" ry="3" style="stroke: #038048; stroke-width: 1.0;"/><text fill="#000000" font-family="sans-serif" font-size="11" lengthAdjust="spacingAndGlyphs" textLength="97" x="58.5" y="211.9189">getMensaje(): String</text><ellipse cx="49.5" cy="222.7539" fill="#84BE84" rx="3" ry="3" style="stroke: #038048; stroke-width: 1.0;"/><text fill="#000000" font-family="sans-serif" font-size="11" lengthAdjust="spacingAndGlyphs" textLength="117" x="58.5" y="225.7549">setMensaje(String): void</text></a><text fill="#888888" font-family="sans-serif" font-size="10" lengthAdjust="spacingAndGlyphs" textLength="190" x="111.5" y="381.3809">UMLDoclet 2.0.10, PlantUML 1.2019.08</text><!--
@startuml
    namespace com.example.AlmacenMotocicletas.DTOs {

        class MotocicletaDTO [[MotocicletaDTO.html]] {
            +getId(): String
            +setId(String): void
            +getMarca(): String
            +setMarca(String): void
            +getLinea(): String
            +setLinea(String): void
            +getModelo(): String
            +setModelo(String): void
            +getCilindraje(): String
            +setCilindraje(String): void
            +getValor(): String
            +setValor(String): void
            +getColor(): String
            +setColor(String): void
            +getImagen(): String
            +setImagen(String): void
        }

        class RespuestaDTO [[RespuestaDTO.html]] {
            +getMensaje(): String
            +setMensaje(String): void
        }

    }

    center footer UMLDoclet 2.0.10, PlantUML 1.2019.08
@enduml

PlantUML version 1.2019.08(Sat Jul 13 14:25:14 COT 2019)
(APACHE source distribution)
Java Runtime: Java(TM) SE Runtime Environment
JVM: Java HotSpot(TM) 64-Bit Server VM
Java Version: 11.0.11+9-LTS-194
Operating System: Windows 10
OS Version: 10.0
Default Encoding: Cp1252
Language: es
Country: CO
--></g></svg>