<?xml version="1.0" encoding="UTF-8" standalone="no"?><svg xmlns="http://www.w3.org/2000/svg" xmlns:xlink="http://www.w3.org/1999/xlink" contentScriptType="application/ecmascript" contentStyleType="text/css" height="394px" preserveAspectRatio="none" style="width:386px;height:394px;" version="1.1" viewBox="0 0 386 394" width="386px" zoomAndPan="magnify"><defs><filter height="300%" id="f1i0fy7owzrg6s" width="300%" x="-1" y="-1"><feGaussianBlur result="blurOut" stdDeviation="2.0"/><feColorMatrix in="blurOut" result="blurOut2" type="matrix" values="0 0 0 0 0 0 0 0 0 0 0 0 0 0 0 0 0 0 .4 0"/><feOffset dx="4.0" dy="4.0" in="blurOut2" result="blurOut3"/><feBlend in="SourceGraphic" in2="blurOut3" mode="normal"/></filter></defs><g><!--cluster com.example.AlmacenMotocicletas.collections--><polygon fill="#FFFFFF" filter="url(#f1i0fy7owzrg6s)" points="22,24,354,24,361,47.6094,364,47.6094,364,345,22,345,22,24" style="stroke: #000000; stroke-width: 1.5;"/><line style="stroke: #000000; stroke-width: 1.5;" x1="22" x2="361" y1="47.6094" y2="47.6094"/><text fill="#000000" font-family="sans-serif" font-size="14" font-weight="bold" lengthAdjust="spacingAndGlyphs" textLength="326" x="26" y="40.5332">com.example.AlmacenMotocicletas.collections</text><!--class com.example.AlmacenMotocicletas.collections.Motocicleta--><a href="Motocicleta.html" target="_top" xlink:actuate="onRequest" xlink:show="new" xlink:title="Motocicleta.html" xlink:type="simple"><rect fill="#FEFECE" filter="url(#f1i0fy7owzrg6s)" height="269.375" id="com.example.AlmacenMotocicletas.collections.Motocicleta" style="stroke: #A80036; stroke-width: 1.5;" width="146" x="120" y="60"/><ellipse cx="158.85" cy="76" fill="#ADD1B2" rx="11" ry="11" style="stroke: #A80036; stroke-width: 1.0;"/><path d="M161.6156,71.875 Q161.7719,71.6563 161.9594,71.5469 Q162.1469,71.4375 162.3656,71.4375 Q162.7406,71.4375 162.975,71.7031 Q163.2094,71.9531 163.2094,72.5625 L163.2094,74.0156 Q163.2094,74.625 162.975,74.8906 Q162.7406,75.1563 162.3656,75.1563 Q162.0219,75.1563 161.8188,74.9531 Q161.6156,74.7656 161.5063,74.25 Q161.4594,73.8906 161.2719,73.7031 Q160.9438,73.3281 160.3344,73.1094 Q159.725,72.8906 159.1,72.8906 Q158.3344,72.8906 157.6938,73.2188 Q157.0688,73.5469 156.5688,74.2969 Q156.0844,75.0469 156.0844,76.0781 L156.0844,77.1719 Q156.0844,78.4063 156.975,79.2344 Q157.8656,80.0469 159.4594,80.0469 Q160.3969,80.0469 161.0531,79.7969 Q161.4438,79.6406 161.8656,79.2031 Q162.1313,78.9375 162.2719,78.8594 Q162.4281,78.7813 162.6313,78.7813 Q162.9594,78.7813 163.2094,79.0469 Q163.475,79.2969 163.475,79.6406 Q163.475,79.9844 163.1313,80.3906 Q162.6313,80.9688 161.8344,81.2969 Q160.7563,81.75 159.4594,81.75 Q157.9438,81.75 156.7406,81.125 Q155.7563,80.625 155.0688,79.5625 Q154.3813,78.4844 154.3813,77.2031 L154.3813,76.0469 Q154.3813,74.7188 154.9906,73.5781 Q155.6156,72.4219 156.7094,71.8125 Q157.8031,71.1875 159.0375,71.1875 Q159.7719,71.1875 160.4125,71.3594 Q161.0688,71.5156 161.6156,71.875 Z "/><text fill="#000000" font-family="sans-serif" font-size="12" lengthAdjust="spacingAndGlyphs" textLength="61" x="178.15" y="80.9102">Motocicleta</text><line style="stroke: #A80036; stroke-width: 1.5;" x1="121" x2="265" y1="92" y2="92"/><line style="stroke: #A80036; stroke-width: 1.5;" x1="121" x2="265" y1="100" y2="100"/><ellipse cx="131" cy="112.418" fill="#84BE84" rx="3" ry="3" style="stroke: #038048; stroke-width: 1.0;"/><text fill="#000000" font-family="sans-serif" font-size="11" lengthAdjust="spacingAndGlyphs" textLength="65" x="140" y="115.4189">getId(): String</text><ellipse cx="131" cy="126.2539" fill="#84BE84" rx="3" ry="3" style="stroke: #038048; stroke-width: 1.0;"/><text fill="#000000" font-family="sans-serif" font-size="11" lengthAdjust="spacingAndGlyphs" textLength="85" x="140" y="129.2549">setId(String): void</text><ellipse cx="131" cy="140.0898" fill="#84BE84" rx="3" ry="3" style="stroke: #038048; stroke-width: 1.0;"/><text fill="#000000" font-family="sans-serif" font-size="11" lengthAdjust="spacingAndGlyphs" textLength="87" x="140" y="143.0908">getMarca(): String</text><ellipse cx="131" cy="153.9258" fill="#84BE84" rx="3" ry="3" style="stroke: #038048; stroke-width: 1.0;"/><text fill="#000000" font-family="sans-serif" font-size="11" lengthAdjust="spacingAndGlyphs" textLength="107" x="140" y="156.9268">setMarca(String): void</text><ellipse cx="131" cy="167.7617" fill="#84BE84" rx="3" ry="3" style="stroke: #038048; stroke-width: 1.0;"/><text fill="#000000" font-family="sans-serif" font-size="11" lengthAdjust="spacingAndGlyphs" textLength="83" x="140" y="170.7627">getLinea(): String</text><ellipse cx="131" cy="181.5977" fill="#84BE84" rx="3" ry="3" style="stroke: #038048; stroke-width: 1.0;"/><text fill="#000000" font-family="sans-serif" font-size="11" lengthAdjust="spacingAndGlyphs" textLength="103" x="140" y="184.5986">setLinea(String): void</text><ellipse cx="131" cy="195.4336" fill="#84BE84" rx="3" ry="3" style="stroke: #038048; stroke-width: 1.0;"/><text fill="#000000" font-family="sans-serif" font-size="11" lengthAdjust="spacingAndGlyphs" textLength="91" x="140" y="198.4346">getModelo(): String</text><ellipse cx="131" cy="209.2695" fill="#84BE84" rx="3" ry="3" style="stroke: #038048; stroke-width: 1.0;"/><text fill="#000000" font-family="sans-serif" font-size="11" lengthAdjust="spacingAndGlyphs" textLength="111" x="140" y="212.2705">setModelo(String): void</text><ellipse cx="131" cy="223.1055" fill="#84BE84" rx="3" ry="3" style="stroke: #038048; stroke-width: 1.0;"/><text fill="#000000" font-family="sans-serif" font-size="11" lengthAdjust="spacingAndGlyphs" textLength="100" x="140" y="226.1064">getCilindraje(): String</text><ellipse cx="131" cy="236.9414" fill="#84BE84" rx="3" ry="3" style="stroke: #038048; stroke-width: 1.0;"/><text fill="#000000" font-family="sans-serif" font-size="11" lengthAdjust="spacingAndGlyphs" textLength="120" x="140" y="239.9424">setCilindraje(String): void</text><ellipse cx="131" cy="250.7773" fill="#84BE84" rx="3" ry="3" style="stroke: #038048; stroke-width: 1.0;"/><text fill="#000000" font-family="sans-serif" font-size="11" lengthAdjust="spacingAndGlyphs" textLength="83" x="140" y="253.7783">getValor(): String</text><ellipse cx="131" cy="264.6133" fill="#84BE84" rx="3" ry="3" style="stroke: #038048; stroke-width: 1.0;"/><text fill="#000000" font-family="sans-serif" font-size="11" lengthAdjust="spacingAndGlyphs" textLength="103" x="140" y="267.6143">setValor(String): void</text><ellipse cx="131" cy="278.4492" fill="#84BE84" rx="3" ry="3" style="stroke: #038048; stroke-width: 1.0;"/><text fill="#000000" font-family="sans-serif" font-size="11" lengthAdjust="spacingAndGlyphs" textLength="82" x="140" y="281.4502">getColor(): String</text><ellipse cx="131" cy="292.2852" fill="#84BE84" rx="3" ry="3" style="stroke: #038048; stroke-width: 1.0;"/><text fill="#000000" font-family="sans-serif" font-size="11" lengthAdjust="spacingAndGlyphs" textLength="102" x="140" y="295.2861">setColor(String): void</text><ellipse cx="131" cy="306.1211" fill="#84BE84" rx="3" ry="3" style="stroke: #038048; stroke-width: 1.0;"/><text fill="#000000" font-family="sans-serif" font-size="11" lengthAdjust="spacingAndGlyphs" textLength="91" x="140" y="309.1221">getImagen(): String</text><ellipse cx="131" cy="319.957" fill="#84BE84" rx="3" ry="3" style="stroke: #038048; stroke-width: 1.0;"/><text fill="#000000" font-family="sans-serif" font-size="11" lengthAdjust="spacingAndGlyphs" textLength="111" x="140" y="322.958">setImagen(String): void</text></a><text fill="#888888" font-family="sans-serif" font-size="10" lengthAdjust="spacingAndGlyphs" textLength="190" x="104" y="381.3809">UMLDoclet 2.0.10, PlantUML 1.2019.08</text><!--
@startuml
    namespace com.example.AlmacenMotocicletas.collections {

        class Motocicleta [[Motocicleta.html]] {
            +getId(): String
            +setId(String): void
            +getMarca(): String
            +setMarca(String): void
            +getLinea(): String
            +setLinea(String): void
            +getModelo(): String
            +setModelo(String): void
            +getCilindraje(): String
            +setCilindraje(String): void
            +getValor(): String
            +setValor(String): void
            +getColor(): String
            +setColor(String): void
            +getImagen(): String
            +setImagen(String): void
        }

    }

    center footer UMLDoclet 2.0.10, PlantUML 1.2019.08
@enduml

PlantUML version 1.2019.08(Sat Jul 13 14:25:14 COT 2019)
(APACHE source distribution)
Java Runtime: Java(TM) SE Runtime Environment
JVM: Java HotSpot(TM) 64-Bit Server VM
Java Version: 11.0.11+9-LTS-194
Operating System: Windows 10
OS Version: 10.0
Default Encoding: Cp1252
Language: es
Country: CO
--></g></svg>