<?xml version="1.0" encoding="UTF-8" standalone="no"?><svg xmlns="http://www.w3.org/2000/svg" xmlns:xlink="http://www.w3.org/1999/xlink" contentScriptType="application/ecmascript" contentStyleType="text/css" height="187px" preserveAspectRatio="none" style="width:305px;height:187px;" version="1.1" viewBox="0 0 305 187" width="305px" zoomAndPan="magnify"><defs><filter height="300%" id="futb7ohgebd3c" width="300%" x="-1" y="-1"><feGaussianBlur result="blurOut" stdDeviation="2.0"/><feColorMatrix in="blurOut" result="blurOut2" type="matrix" values="0 0 0 0 0 0 0 0 0 0 0 0 0 0 0 0 0 0 .4 0"/><feOffset dx="4.0" dy="4.0" in="blurOut2" result="blurOut3"/><feBlend in="SourceGraphic" in2="blurOut3" mode="normal"/></filter></defs><g><!--cluster com.example.AlmacenMotocicletas--><polygon fill="#FFFFFF" filter="url(#futb7ohgebd3c)" points="22,24,273,24,280,47.6094,283,47.6094,283,138,22,138,22,24" style="stroke: #000000; stroke-width: 1.5;"/><line style="stroke: #000000; stroke-width: 1.5;" x1="22" x2="280" y1="47.6094" y2="47.6094"/><text fill="#000000" font-family="sans-serif" font-size="14" font-weight="bold" lengthAdjust="spacingAndGlyphs" textLength="245" x="26" y="40.5332">com.example.AlmacenMotocicletas</text><!--class com.example.AlmacenMotocicletas.AlmacenMotocicletasApplication--><a href="AlmacenMotocicletasApplication.html" target="_top" xlink:actuate="onRequest" xlink:show="new" xlink:title="AlmacenMotocicletasApplication.html" xlink:type="simple"><rect fill="#FEFECE" filter="url(#futb7ohgebd3c)" height="61.8359" id="com.example.AlmacenMotocicletas.AlmacenMotocicletasApplication" style="stroke: #A80036; stroke-width: 1.5;" width="208" x="48" y="60"/><ellipse cx="63" cy="76" fill="#ADD1B2" rx="11" ry="11" style="stroke: #A80036; stroke-width: 1.0;"/><path d="M65.7656,71.875 Q65.9219,71.6563 66.1094,71.5469 Q66.2969,71.4375 66.5156,71.4375 Q66.8906,71.4375 67.125,71.7031 Q67.3594,71.9531 67.3594,72.5625 L67.3594,74.0156 Q67.3594,74.625 67.125,74.8906 Q66.8906,75.1563 66.5156,75.1563 Q66.1719,75.1563 65.9688,74.9531 Q65.7656,74.7656 65.6563,74.25 Q65.6094,73.8906 65.4219,73.7031 Q65.0938,73.3281 64.4844,73.1094 Q63.875,72.8906 63.25,72.8906 Q62.4844,72.8906 61.8438,73.2188 Q61.2188,73.5469 60.7188,74.2969 Q60.2344,75.0469 60.2344,76.0781 L60.2344,77.1719 Q60.2344,78.4063 61.125,79.2344 Q62.0156,80.0469 63.6094,80.0469 Q64.5469,80.0469 65.2031,79.7969 Q65.5938,79.6406 66.0156,79.2031 Q66.2813,78.9375 66.4219,78.8594 Q66.5781,78.7813 66.7813,78.7813 Q67.1094,78.7813 67.3594,79.0469 Q67.625,79.2969 67.625,79.6406 Q67.625,79.9844 67.2813,80.3906 Q66.7813,80.9688 65.9844,81.2969 Q64.9063,81.75 63.6094,81.75 Q62.0938,81.75 60.8906,81.125 Q59.9063,80.625 59.2188,79.5625 Q58.5313,78.4844 58.5313,77.2031 L58.5313,76.0469 Q58.5313,74.7188 59.1406,73.5781 Q59.7656,72.4219 60.8594,71.8125 Q61.9531,71.1875 63.1875,71.1875 Q63.9219,71.1875 64.5625,71.3594 Q65.2188,71.5156 65.7656,71.875 Z "/><text fill="#000000" font-family="sans-serif" font-size="12" lengthAdjust="spacingAndGlyphs" textLength="176" x="77" y="80.9102">AlmacenMotocicletasApplication</text><line style="stroke: #A80036; stroke-width: 1.5;" x1="49" x2="255" y1="92" y2="92"/><line style="stroke: #A80036; stroke-width: 1.5;" x1="49" x2="255" y1="100" y2="100"/><ellipse cx="59" cy="112.418" fill="#84BE84" rx="3" ry="3" style="stroke: #038048; stroke-width: 1.0;"/><text fill="#000000" font-family="sans-serif" font-size="11" lengthAdjust="spacingAndGlyphs" text-decoration="underline" textLength="90" x="68" y="115.4189">main(String[]): void</text></a><text fill="#888888" font-family="sans-serif" font-size="10" lengthAdjust="spacingAndGlyphs" textLength="190" x="63.5" y="174.3809">UMLDoclet 2.0.10, PlantUML 1.2019.08</text><!--
@startuml
    namespace com.example.AlmacenMotocicletas {

        class AlmacenMotocicletasApplication [[AlmacenMotocicletasApplication.html]] {
            {static} +main(String[]): void
        }

    }

    center footer UMLDoclet 2.0.10, PlantUML 1.2019.08
@enduml

PlantUML version 1.2019.08(Sat Jul 13 14:25:14 COT 2019)
(APACHE source distribution)
Java Runtime: Java(TM) SE Runtime Environment
JVM: Java HotSpot(TM) 64-Bit Server VM
Java Version: 11.0.11+9-LTS-194
Operating System: Windows 10
OS Version: 10.0
Default Encoding: Cp1252
Language: es
Country: CO
--></g></svg>