<?xml version="1.0" encoding="UTF-8" standalone="no"?><svg xmlns="http://www.w3.org/2000/svg" xmlns:xlink="http://www.w3.org/1999/xlink" contentScriptType="application/ecmascript" contentStyleType="text/css" height="158px" preserveAspectRatio="none" style="width:327px;height:158px;" version="1.1" viewBox="0 0 327 158" width="327px" zoomAndPan="magnify"><defs><filter height="300%" id="f1rtxdez7blvw8" width="300%" x="-1" y="-1"><feGaussianBlur result="blurOut" stdDeviation="2.0"/><feColorMatrix in="blurOut" result="blurOut2" type="matrix" values="0 0 0 0 0 0 0 0 0 0 0 0 0 0 0 0 0 0 .4 0"/><feOffset dx="4.0" dy="4.0" in="blurOut2" result="blurOut3"/><feBlend in="SourceGraphic" in2="blurOut3" mode="normal"/></filter></defs><g><!--class com.example.AlmacenMotocicletas.controllers.MotocicletaController--><a href="MotocicletaController.html" target="_top" xlink:actuate="onRequest" xlink:show="new" xlink:title="MotocicletaController.html" xlink:type="simple"><rect fill="#FEFECE" filter="url(#f1rtxdez7blvw8)" height="117.3672" id="com.example.AlmacenMotocicletas.controllers.MotocicletaController" style="stroke: #A80036; stroke-width: 1.5;" width="310" x="6" y="8"/><ellipse cx="45.3" cy="28.0938" fill="#ADD1B2" rx="11" ry="11" style="stroke: #A80036; stroke-width: 1.0;"/><path d="M48.0656,23.9688 Q48.2219,23.75 48.4094,23.6406 Q48.5969,23.5313 48.8156,23.5313 Q49.1906,23.5313 49.425,23.7969 Q49.6594,24.0469 49.6594,24.6563 L49.6594,26.1094 Q49.6594,26.7188 49.425,26.9844 Q49.1906,27.25 48.8156,27.25 Q48.4719,27.25 48.2688,27.0469 Q48.0656,26.8594 47.9563,26.3438 Q47.9094,25.9844 47.7219,25.7969 Q47.3938,25.4219 46.7844,25.2031 Q46.175,24.9844 45.55,24.9844 Q44.7844,24.9844 44.1438,25.3125 Q43.5188,25.6406 43.0188,26.3906 Q42.5344,27.1406 42.5344,28.1719 L42.5344,29.2656 Q42.5344,30.5 43.425,31.3281 Q44.3156,32.1406 45.9094,32.1406 Q46.8469,32.1406 47.5031,31.8906 Q47.8938,31.7344 48.3156,31.2969 Q48.5813,31.0313 48.7219,30.9531 Q48.8781,30.875 49.0813,30.875 Q49.4094,30.875 49.6594,31.1406 Q49.925,31.3906 49.925,31.7344 Q49.925,32.0781 49.5813,32.4844 Q49.0813,33.0625 48.2844,33.3906 Q47.2063,33.8438 45.9094,33.8438 Q44.3938,33.8438 43.1906,33.2188 Q42.2063,32.7188 41.5188,31.6563 Q40.8313,30.5781 40.8313,29.2969 L40.8313,28.1406 Q40.8313,26.8125 41.4406,25.6719 Q42.0656,24.5156 43.1594,23.9063 Q44.2531,23.2813 45.4875,23.2813 Q46.2219,23.2813 46.8625,23.4531 Q47.5188,23.6094 48.0656,23.9688 Z "/><text fill="#000000" font-family="sans-serif" font-size="14" lengthAdjust="spacingAndGlyphs" textLength="133" x="110.2" y="27.5332">MotocicletaController</text><text fill="#000000" font-family="sans-serif" font-size="10" lengthAdjust="spacingAndGlyphs" textLength="224" x="64.7" y="40.9902">com.example.AlmacenMotocicletas.controllers</text><line style="stroke: #A80036; stroke-width: 1.5;" x1="7" x2="315" y1="48.1875" y2="48.1875"/><ellipse cx="17" cy="60.6055" fill="#84BE84" rx="3" ry="3" style="stroke: #038048; stroke-width: 1.0;"/><text fill="#000000" font-family="sans-serif" font-size="11" lengthAdjust="spacingAndGlyphs" textLength="243" x="26" y="63.6064">findById(String): ResponseEntity&lt;MotocicletaDTO&gt;</text><ellipse cx="17" cy="74.4414" fill="#84BE84" rx="3" ry="3" style="stroke: #038048; stroke-width: 1.0;"/><text fill="#000000" font-family="sans-serif" font-size="11" lengthAdjust="spacingAndGlyphs" textLength="235" x="26" y="77.4424">findAll(): ResponseEntity&lt;List&lt;MotocicletaDTO&gt;&gt;</text><ellipse cx="17" cy="88.2773" fill="#84BE84" rx="3" ry="3" style="stroke: #038048; stroke-width: 1.0;"/><text fill="#000000" font-family="sans-serif" font-size="11" lengthAdjust="spacingAndGlyphs" textLength="282" x="26" y="91.2783">create(MotocicletaDTO): ResponseEntity&lt;MotocicletaDTO&gt;</text><ellipse cx="17" cy="102.1133" fill="#84BE84" rx="3" ry="3" style="stroke: #038048; stroke-width: 1.0;"/><text fill="#000000" font-family="sans-serif" font-size="11" lengthAdjust="spacingAndGlyphs" textLength="284" x="26" y="105.1143">update(MotocicletaDTO): ResponseEntity&lt;MotocicletaDTO&gt;</text><ellipse cx="17" cy="115.9492" fill="#84BE84" rx="3" ry="3" style="stroke: #038048; stroke-width: 1.0;"/><text fill="#000000" font-family="sans-serif" font-size="11" lengthAdjust="spacingAndGlyphs" textLength="146" x="26" y="118.9502">delete(String): ResponseEntity</text></a><text fill="#888888" font-family="sans-serif" font-size="10" lengthAdjust="spacingAndGlyphs" textLength="190" x="72" y="145.3809">UMLDoclet 2.0.10, PlantUML 1.2019.08</text><!--
@startuml
    set namespaceSeparator none
    hide empty fields
    hide empty methods

    class "<size:14>MotocicletaController\n<size:10>com.example.AlmacenMotocicletas.controllers" as com.example.AlmacenMotocicletas.controllers.MotocicletaController [[MotocicletaController.html]] {
        +findById(String): ResponseEntity<MotocicletaDTO>
        +findAll(): ResponseEntity<List<MotocicletaDTO>>
        +create(MotocicletaDTO): ResponseEntity<MotocicletaDTO>
        +update(MotocicletaDTO): ResponseEntity<MotocicletaDTO>
        +delete(String): ResponseEntity
    }

    center footer UMLDoclet 2.0.10, PlantUML 1.2019.08
@enduml

PlantUML version 1.2019.08(Sat Jul 13 14:25:14 COT 2019)
(APACHE source distribution)
Java Runtime: Java(TM) SE Runtime Environment
JVM: Java HotSpot(TM) 64-Bit Server VM
Java Version: 11.0.11+9-LTS-194
Operating System: Windows 10
OS Version: 10.0
Default Encoding: Cp1252
Language: es
Country: CO
--></g></svg>