<?xml version="1.0" encoding="UTF-8" standalone="no"?><svg xmlns="http://www.w3.org/2000/svg" xmlns:xlink="http://www.w3.org/1999/xlink" contentScriptType="application/ecmascript" contentStyleType="text/css" height="131px" preserveAspectRatio="none" style="width:316px;height:131px;" version="1.1" viewBox="0 0 316 131" width="316px" zoomAndPan="magnify"><defs><filter height="300%" id="f1h30lo8rees6j" width="300%" x="-1" y="-1"><feGaussianBlur result="blurOut" stdDeviation="2.0"/><feColorMatrix in="blurOut" result="blurOut2" type="matrix" values="0 0 0 0 0 0 0 0 0 0 0 0 0 0 0 0 0 0 .4 0"/><feOffset dx="4.0" dy="4.0" in="blurOut2" result="blurOut3"/><feBlend in="SourceGraphic" in2="blurOut3" mode="normal"/></filter></defs><g><!--class com.example.AlmacenMotocicletas.controllers.MotocicletaActionsController--><a href="MotocicletaActionsController.html" target="_top" xlink:actuate="onRequest" xlink:show="new" xlink:title="MotocicletaActionsController.html" xlink:type="simple"><rect fill="#FEFECE" filter="url(#f1h30lo8rees6j)" height="89.6953" id="com.example.AlmacenMotocicletas.controllers.MotocicletaActionsController" style="stroke: #A80036; stroke-width: 1.5;" width="299" x="6" y="8"/><ellipse cx="40.35" cy="28.0938" fill="#ADD1B2" rx="11" ry="11" style="stroke: #A80036; stroke-width: 1.0;"/><path d="M43.1156,23.9688 Q43.2719,23.75 43.4594,23.6406 Q43.6469,23.5313 43.8656,23.5313 Q44.2406,23.5313 44.475,23.7969 Q44.7094,24.0469 44.7094,24.6563 L44.7094,26.1094 Q44.7094,26.7188 44.475,26.9844 Q44.2406,27.25 43.8656,27.25 Q43.5219,27.25 43.3188,27.0469 Q43.1156,26.8594 43.0063,26.3438 Q42.9594,25.9844 42.7719,25.7969 Q42.4438,25.4219 41.8344,25.2031 Q41.225,24.9844 40.6,24.9844 Q39.8344,24.9844 39.1938,25.3125 Q38.5688,25.6406 38.0688,26.3906 Q37.5844,27.1406 37.5844,28.1719 L37.5844,29.2656 Q37.5844,30.5 38.475,31.3281 Q39.3656,32.1406 40.9594,32.1406 Q41.8969,32.1406 42.5531,31.8906 Q42.9438,31.7344 43.3656,31.2969 Q43.6313,31.0313 43.7719,30.9531 Q43.9281,30.875 44.1313,30.875 Q44.4594,30.875 44.7094,31.1406 Q44.975,31.3906 44.975,31.7344 Q44.975,32.0781 44.6313,32.4844 Q44.1313,33.0625 43.3344,33.3906 Q42.2563,33.8438 40.9594,33.8438 Q39.4438,33.8438 38.2406,33.2188 Q37.2563,32.7188 36.5688,31.6563 Q35.8813,30.5781 35.8813,29.2969 L35.8813,28.1406 Q35.8813,26.8125 36.4906,25.6719 Q37.1156,24.5156 38.2094,23.9063 Q39.3031,23.2813 40.5375,23.2813 Q41.2719,23.2813 41.9125,23.4531 Q42.5688,23.6094 43.1156,23.9688 Z "/><text fill="#000000" font-family="sans-serif" font-size="14" lengthAdjust="spacingAndGlyphs" textLength="179" x="81.15" y="27.5332">MotocicletaActionsController</text><text fill="#000000" font-family="sans-serif" font-size="10" lengthAdjust="spacingAndGlyphs" textLength="224" x="58.65" y="40.9902">com.example.AlmacenMotocicletas.controllers</text><line style="stroke: #A80036; stroke-width: 1.5;" x1="7" x2="304" y1="48.1875" y2="48.1875"/><ellipse cx="17" cy="60.6055" fill="#84BE84" rx="3" ry="3" style="stroke: #038048; stroke-width: 1.0;"/><text fill="#000000" font-family="sans-serif" font-size="11" lengthAdjust="spacingAndGlyphs" textLength="260" x="26" y="63.6064">listByMarca(String): ResponseEntity&lt;MotocicletaDTO&gt;</text><ellipse cx="17" cy="74.4414" fill="#84BE84" rx="3" ry="3" style="stroke: #038048; stroke-width: 1.0;"/><text fill="#000000" font-family="sans-serif" font-size="11" lengthAdjust="spacingAndGlyphs" textLength="256" x="26" y="77.4424">listByLinea(String): ResponseEntity&lt;MotocicletaDTO&gt;</text><ellipse cx="17" cy="88.2773" fill="#84BE84" rx="3" ry="3" style="stroke: #038048; stroke-width: 1.0;"/><text fill="#000000" font-family="sans-serif" font-size="11" lengthAdjust="spacingAndGlyphs" textLength="273" x="26" y="91.2783">listByCilindraje(String): ResponseEntity&lt;MotocicletaDTO&gt;</text></a><text fill="#888888" font-family="sans-serif" font-size="10" lengthAdjust="spacingAndGlyphs" textLength="190" x="66.5" y="118.3809">UMLDoclet 2.0.10, PlantUML 1.2019.08</text><!--
@startuml
    set namespaceSeparator none
    hide empty fields
    hide empty methods

    class "<size:14>MotocicletaActionsController\n<size:10>com.example.AlmacenMotocicletas.controllers" as com.example.AlmacenMotocicletas.controllers.MotocicletaActionsController [[MotocicletaActionsController.html]] {
        +listByMarca(String): ResponseEntity<MotocicletaDTO>
        +listByLinea(String): ResponseEntity<MotocicletaDTO>
        +listByCilindraje(String): ResponseEntity<MotocicletaDTO>
    }

    center footer UMLDoclet 2.0.10, PlantUML 1.2019.08
@enduml

PlantUML version 1.2019.08(Sat Jul 13 14:25:14 COT 2019)
(APACHE source distribution)
Java Runtime: Java(TM) SE Runtime Environment
JVM: Java HotSpot(TM) 64-Bit Server VM
Java Version: 11.0.11+9-LTS-194
Operating System: Windows 10
OS Version: 10.0
Default Encoding: Cp1252
Language: es
Country: CO
--></g></svg>