<?xml version="1.0" encoding="UTF-8" standalone="no"?><svg xmlns="http://www.w3.org/2000/svg" xmlns:xlink="http://www.w3.org/1999/xlink" contentScriptType="application/ecmascript" contentStyleType="text/css" height="242px" preserveAspectRatio="none" style="width:721px;height:242px;" version="1.1" viewBox="0 0 721 242" width="721px" zoomAndPan="magnify"><defs><filter height="300%" id="f1bthk0cioaxuo" width="300%" x="-1" y="-1"><feGaussianBlur result="blurOut" stdDeviation="2.0"/><feColorMatrix in="blurOut" result="blurOut2" type="matrix" values="0 0 0 0 0 0 0 0 0 0 0 0 0 0 0 0 0 0 .4 0"/><feOffset dx="4.0" dy="4.0" in="blurOut2" result="blurOut3"/><feBlend in="SourceGraphic" in2="blurOut3" mode="normal"/></filter></defs><g><!--cluster com.example.AlmacenMotocicletas.controllers--><polygon fill="#FFFFFF" filter="url(#f1bthk0cioaxuo)" points="22,24,354,24,361,47.6094,699,47.6094,699,193,22,193,22,24" style="stroke: #000000; stroke-width: 1.5;"/><line style="stroke: #000000; stroke-width: 1.5;" x1="22" x2="361" y1="47.6094" y2="47.6094"/><text fill="#000000" font-family="sans-serif" font-size="14" font-weight="bold" lengthAdjust="spacingAndGlyphs" textLength="326" x="26" y="40.5332">com.example.AlmacenMotocicletas.controllers</text><!--class com.example.AlmacenMotocicletas.controllers.MotocicletaActionsController--><a href="MotocicletaActionsController.html" target="_top" xlink:actuate="onRequest" xlink:show="new" xlink:title="MotocicletaActionsController.html" xlink:type="simple"><rect fill="#FEFECE" filter="url(#f1bthk0cioaxuo)" height="89.5078" id="com.example.AlmacenMotocicletas.controllers.MotocicletaActionsController" style="stroke: #A80036; stroke-width: 1.5;" width="299" x="383.5" y="73.5"/><ellipse cx="451.25" cy="89.5" fill="#ADD1B2" rx="11" ry="11" style="stroke: #A80036; stroke-width: 1.0;"/><path d="M454.0156,85.375 Q454.1719,85.1563 454.3594,85.0469 Q454.5469,84.9375 454.7656,84.9375 Q455.1406,84.9375 455.375,85.2031 Q455.6094,85.4531 455.6094,86.0625 L455.6094,87.5156 Q455.6094,88.125 455.375,88.3906 Q455.1406,88.6563 454.7656,88.6563 Q454.4219,88.6563 454.2188,88.4531 Q454.0156,88.2656 453.9063,87.75 Q453.8594,87.3906 453.6719,87.2031 Q453.3438,86.8281 452.7344,86.6094 Q452.125,86.3906 451.5,86.3906 Q450.7344,86.3906 450.0938,86.7188 Q449.4688,87.0469 448.9688,87.7969 Q448.4844,88.5469 448.4844,89.5781 L448.4844,90.6719 Q448.4844,91.9063 449.375,92.7344 Q450.2656,93.5469 451.8594,93.5469 Q452.7969,93.5469 453.4531,93.2969 Q453.8438,93.1406 454.2656,92.7031 Q454.5313,92.4375 454.6719,92.3594 Q454.8281,92.2813 455.0313,92.2813 Q455.3594,92.2813 455.6094,92.5469 Q455.875,92.7969 455.875,93.1406 Q455.875,93.4844 455.5313,93.8906 Q455.0313,94.4688 454.2344,94.7969 Q453.1563,95.25 451.8594,95.25 Q450.3438,95.25 449.1406,94.625 Q448.1563,94.125 447.4688,93.0625 Q446.7813,91.9844 446.7813,90.7031 L446.7813,89.5469 Q446.7813,88.2188 447.3906,87.0781 Q448.0156,85.9219 449.1094,85.3125 Q450.2031,84.6875 451.4375,84.6875 Q452.1719,84.6875 452.8125,84.8594 Q453.4688,85.0156 454.0156,85.375 Z "/><text fill="#000000" font-family="sans-serif" font-size="12" lengthAdjust="spacingAndGlyphs" textLength="155" x="471.75" y="94.4102">MotocicletaActionsController</text><line style="stroke: #A80036; stroke-width: 1.5;" x1="384.5" x2="681.5" y1="105.5" y2="105.5"/><line style="stroke: #A80036; stroke-width: 1.5;" x1="384.5" x2="681.5" y1="113.5" y2="113.5"/><ellipse cx="394.5" cy="125.918" fill="#84BE84" rx="3" ry="3" style="stroke: #038048; stroke-width: 1.0;"/><text fill="#000000" font-family="sans-serif" font-size="11" lengthAdjust="spacingAndGlyphs" textLength="260" x="403.5" y="128.9189">listByMarca(String): ResponseEntity&lt;MotocicletaDTO&gt;</text><ellipse cx="394.5" cy="139.7539" fill="#84BE84" rx="3" ry="3" style="stroke: #038048; stroke-width: 1.0;"/><text fill="#000000" font-family="sans-serif" font-size="11" lengthAdjust="spacingAndGlyphs" textLength="256" x="403.5" y="142.7549">listByLinea(String): ResponseEntity&lt;MotocicletaDTO&gt;</text><ellipse cx="394.5" cy="153.5898" fill="#84BE84" rx="3" ry="3" style="stroke: #038048; stroke-width: 1.0;"/><text fill="#000000" font-family="sans-serif" font-size="11" lengthAdjust="spacingAndGlyphs" textLength="273" x="403.5" y="156.5908">listByCilindraje(String): ResponseEntity&lt;MotocicletaDTO&gt;</text></a><!--class com.example.AlmacenMotocicletas.controllers.MotocicletaController--><a href="MotocicletaController.html" target="_top" xlink:actuate="onRequest" xlink:show="new" xlink:title="MotocicletaController.html" xlink:type="simple"><rect fill="#FEFECE" filter="url(#f1bthk0cioaxuo)" height="117.1797" id="com.example.AlmacenMotocicletas.controllers.MotocicletaController" style="stroke: #A80036; stroke-width: 1.5;" width="310" x="38" y="60"/><ellipse cx="131.25" cy="76" fill="#ADD1B2" rx="11" ry="11" style="stroke: #A80036; stroke-width: 1.0;"/><path d="M134.0156,71.875 Q134.1719,71.6563 134.3594,71.5469 Q134.5469,71.4375 134.7656,71.4375 Q135.1406,71.4375 135.375,71.7031 Q135.6094,71.9531 135.6094,72.5625 L135.6094,74.0156 Q135.6094,74.625 135.375,74.8906 Q135.1406,75.1563 134.7656,75.1563 Q134.4219,75.1563 134.2188,74.9531 Q134.0156,74.7656 133.9063,74.25 Q133.8594,73.8906 133.6719,73.7031 Q133.3438,73.3281 132.7344,73.1094 Q132.125,72.8906 131.5,72.8906 Q130.7344,72.8906 130.0938,73.2188 Q129.4688,73.5469 128.9688,74.2969 Q128.4844,75.0469 128.4844,76.0781 L128.4844,77.1719 Q128.4844,78.4063 129.375,79.2344 Q130.2656,80.0469 131.8594,80.0469 Q132.7969,80.0469 133.4531,79.7969 Q133.8438,79.6406 134.2656,79.2031 Q134.5313,78.9375 134.6719,78.8594 Q134.8281,78.7813 135.0313,78.7813 Q135.3594,78.7813 135.6094,79.0469 Q135.875,79.2969 135.875,79.6406 Q135.875,79.9844 135.5313,80.3906 Q135.0313,80.9688 134.2344,81.2969 Q133.1563,81.75 131.8594,81.75 Q130.3438,81.75 129.1406,81.125 Q128.1563,80.625 127.4688,79.5625 Q126.7813,78.4844 126.7813,77.2031 L126.7813,76.0469 Q126.7813,74.7188 127.3906,73.5781 Q128.0156,72.4219 129.1094,71.8125 Q130.2031,71.1875 131.4375,71.1875 Q132.1719,71.1875 132.8125,71.3594 Q133.4688,71.5156 134.0156,71.875 Z "/><text fill="#000000" font-family="sans-serif" font-size="12" lengthAdjust="spacingAndGlyphs" textLength="115" x="151.75" y="80.9102">MotocicletaController</text><line style="stroke: #A80036; stroke-width: 1.5;" x1="39" x2="347" y1="92" y2="92"/><line style="stroke: #A80036; stroke-width: 1.5;" x1="39" x2="347" y1="100" y2="100"/><ellipse cx="49" cy="112.418" fill="#84BE84" rx="3" ry="3" style="stroke: #038048; stroke-width: 1.0;"/><text fill="#000000" font-family="sans-serif" font-size="11" lengthAdjust="spacingAndGlyphs" textLength="243" x="58" y="115.4189">findById(String): ResponseEntity&lt;MotocicletaDTO&gt;</text><ellipse cx="49" cy="126.2539" fill="#84BE84" rx="3" ry="3" style="stroke: #038048; stroke-width: 1.0;"/><text fill="#000000" font-family="sans-serif" font-size="11" lengthAdjust="spacingAndGlyphs" textLength="235" x="58" y="129.2549">findAll(): ResponseEntity&lt;List&lt;MotocicletaDTO&gt;&gt;</text><ellipse cx="49" cy="140.0898" fill="#84BE84" rx="3" ry="3" style="stroke: #038048; stroke-width: 1.0;"/><text fill="#000000" font-family="sans-serif" font-size="11" lengthAdjust="spacingAndGlyphs" textLength="282" x="58" y="143.0908">create(MotocicletaDTO): ResponseEntity&lt;MotocicletaDTO&gt;</text><ellipse cx="49" cy="153.9258" fill="#84BE84" rx="3" ry="3" style="stroke: #038048; stroke-width: 1.0;"/><text fill="#000000" font-family="sans-serif" font-size="11" lengthAdjust="spacingAndGlyphs" textLength="284" x="58" y="156.9268">update(MotocicletaDTO): ResponseEntity&lt;MotocicletaDTO&gt;</text><ellipse cx="49" cy="167.7617" fill="#84BE84" rx="3" ry="3" style="stroke: #038048; stroke-width: 1.0;"/><text fill="#000000" font-family="sans-serif" font-size="11" lengthAdjust="spacingAndGlyphs" textLength="146" x="58" y="170.7627">delete(String): ResponseEntity</text></a><text fill="#888888" font-family="sans-serif" font-size="10" lengthAdjust="spacingAndGlyphs" textLength="190" x="271.5" y="229.3809">UMLDoclet 2.0.10, PlantUML 1.2019.08</text><!--
@startuml
    namespace com.example.AlmacenMotocicletas.controllers {

        class MotocicletaActionsController [[MotocicletaActionsController.html]] {
            +listByMarca(String): ResponseEntity<MotocicletaDTO>
            +listByLinea(String): ResponseEntity<MotocicletaDTO>
            +listByCilindraje(String): ResponseEntity<MotocicletaDTO>
        }

        class MotocicletaController [[MotocicletaController.html]] {
            +findById(String): ResponseEntity<MotocicletaDTO>
            +findAll(): ResponseEntity<List<MotocicletaDTO>>
            +create(MotocicletaDTO): ResponseEntity<MotocicletaDTO>
            +update(MotocicletaDTO): ResponseEntity<MotocicletaDTO>
            +delete(String): ResponseEntity
        }

    }

    center footer UMLDoclet 2.0.10, PlantUML 1.2019.08
@enduml

PlantUML version 1.2019.08(Sat Jul 13 14:25:14 COT 2019)
(APACHE source distribution)
Java Runtime: Java(TM) SE Runtime Environment
JVM: Java HotSpot(TM) 64-Bit Server VM
Java Version: 11.0.11+9-LTS-194
Operating System: Windows 10
OS Version: 10.0
Default Encoding: Cp1252
Language: es
Country: CO
--></g></svg>