<?xml version="1.0" encoding="UTF-8" standalone="no"?><svg xmlns="http://www.w3.org/2000/svg" xmlns:xlink="http://www.w3.org/1999/xlink" contentScriptType="application/ecmascript" contentStyleType="text/css" height="131px" preserveAspectRatio="none" style="width:329px;height:131px;" version="1.1" viewBox="0 0 329 131" width="329px" zoomAndPan="magnify"><defs><filter height="300%" id="f80at0sj4kx92" width="300%" x="-1" y="-1"><feGaussianBlur result="blurOut" stdDeviation="2.0"/><feColorMatrix in="blurOut" result="blurOut2" type="matrix" values="0 0 0 0 0 0 0 0 0 0 0 0 0 0 0 0 0 0 .4 0"/><feOffset dx="4.0" dy="4.0" in="blurOut2" result="blurOut3"/><feBlend in="SourceGraphic" in2="blurOut3" mode="normal"/></filter></defs><g><!--class com.example.AlmacenMotocicletas.mappers.MotocicletaMapper--><a href="MotocicletaMapper.html" target="_top" xlink:actuate="onRequest" xlink:show="new" xlink:title="MotocicletaMapper.html" xlink:type="simple"><rect fill="#FEFECE" filter="url(#f80at0sj4kx92)" height="89.6953" id="com.example.AlmacenMotocicletas.mappers.MotocicletaMapper" style="stroke: #A80036; stroke-width: 1.5;" width="312" x="6" y="8"/><ellipse cx="50.25" cy="28.0938" fill="#ADD1B2" rx="11" ry="11" style="stroke: #A80036; stroke-width: 1.0;"/><path d="M53.0156,23.9688 Q53.1719,23.75 53.3594,23.6406 Q53.5469,23.5313 53.7656,23.5313 Q54.1406,23.5313 54.375,23.7969 Q54.6094,24.0469 54.6094,24.6563 L54.6094,26.1094 Q54.6094,26.7188 54.375,26.9844 Q54.1406,27.25 53.7656,27.25 Q53.4219,27.25 53.2188,27.0469 Q53.0156,26.8594 52.9063,26.3438 Q52.8594,25.9844 52.6719,25.7969 Q52.3438,25.4219 51.7344,25.2031 Q51.125,24.9844 50.5,24.9844 Q49.7344,24.9844 49.0938,25.3125 Q48.4688,25.6406 47.9688,26.3906 Q47.4844,27.1406 47.4844,28.1719 L47.4844,29.2656 Q47.4844,30.5 48.375,31.3281 Q49.2656,32.1406 50.8594,32.1406 Q51.7969,32.1406 52.4531,31.8906 Q52.8438,31.7344 53.2656,31.2969 Q53.5313,31.0313 53.6719,30.9531 Q53.8281,30.875 54.0313,30.875 Q54.3594,30.875 54.6094,31.1406 Q54.875,31.3906 54.875,31.7344 Q54.875,32.0781 54.5313,32.4844 Q54.0313,33.0625 53.2344,33.3906 Q52.1563,33.8438 50.8594,33.8438 Q49.3438,33.8438 48.1406,33.2188 Q47.1563,32.7188 46.4688,31.6563 Q45.7813,30.5781 45.7813,29.2969 L45.7813,28.1406 Q45.7813,26.8125 46.3906,25.6719 Q47.0156,24.5156 48.1094,23.9063 Q49.2031,23.2813 50.4375,23.2813 Q51.1719,23.2813 51.8125,23.4531 Q52.4688,23.6094 53.0156,23.9688 Z "/><text fill="#000000" font-family="sans-serif" font-size="14" lengthAdjust="spacingAndGlyphs" textLength="119" x="118.75" y="27.5332">MotocicletaMapper</text><text fill="#000000" font-family="sans-serif" font-size="10" lengthAdjust="spacingAndGlyphs" textLength="215" x="70.75" y="40.9902">com.example.AlmacenMotocicletas.mappers</text><line style="stroke: #A80036; stroke-width: 1.5;" x1="7" x2="317" y1="48.1875" y2="48.1875"/><ellipse cx="17" cy="60.6055" fill="#84BE84" rx="3" ry="3" style="stroke: #038048; stroke-width: 1.0;"/><text fill="#000000" font-family="sans-serif" font-size="11" lengthAdjust="spacingAndGlyphs" textLength="186" x="26" y="63.6064">fromDTO(MotocicletaDTO): Motocicleta</text><ellipse cx="17" cy="74.4414" fill="#84BE84" rx="3" ry="3" style="stroke: #038048; stroke-width: 1.0;"/><text fill="#000000" font-family="sans-serif" font-size="11" lengthAdjust="spacingAndGlyphs" textLength="211" x="26" y="77.4424">fromCollection(Motocicleta): MotocicletaDTO</text><ellipse cx="17" cy="88.2773" fill="#84BE84" rx="3" ry="3" style="stroke: #038048; stroke-width: 1.0;"/><text fill="#000000" font-family="sans-serif" font-size="11" lengthAdjust="spacingAndGlyphs" textLength="286" x="26" y="91.2783">fromCollectionList(List&lt;Motocicleta&gt;): List&lt;MotocicletaDTO&gt;</text></a><text fill="#888888" font-family="sans-serif" font-size="10" lengthAdjust="spacingAndGlyphs" textLength="190" x="73" y="118.3809">UMLDoclet 2.0.10, PlantUML 1.2019.08</text><!--
@startuml
    set namespaceSeparator none
    hide empty fields
    hide empty methods

    class "<size:14>MotocicletaMapper\n<size:10>com.example.AlmacenMotocicletas.mappers" as com.example.AlmacenMotocicletas.mappers.MotocicletaMapper [[MotocicletaMapper.html]] {
        +fromDTO(MotocicletaDTO): Motocicleta
        +fromCollection(Motocicleta): MotocicletaDTO
        +fromCollectionList(List<Motocicleta>): List<MotocicletaDTO>
    }

    center footer UMLDoclet 2.0.10, PlantUML 1.2019.08
@enduml

PlantUML version 1.2019.08(Sat Jul 13 14:25:14 COT 2019)
(APACHE source distribution)
Java Runtime: Java(TM) SE Runtime Environment
JVM: Java HotSpot(TM) 64-Bit Server VM
Java Version: 11.0.11+9-LTS-194
Operating System: Windows 10
OS Version: 10.0
Default Encoding: Cp1252
Language: es
Country: CO
--></g></svg>