<?xml version="1.0" encoding="UTF-8" standalone="no"?><svg xmlns="http://www.w3.org/2000/svg" xmlns:xlink="http://www.w3.org/1999/xlink" contentScriptType="application/ecmascript" contentStyleType="text/css" height="215px" preserveAspectRatio="none" style="width:388px;height:215px;" version="1.1" viewBox="0 0 388 215" width="388px" zoomAndPan="magnify"><defs><filter height="300%" id="f19lm97qsadcrc" width="300%" x="-1" y="-1"><feGaussianBlur result="blurOut" stdDeviation="2.0"/><feColorMatrix in="blurOut" result="blurOut2" type="matrix" values="0 0 0 0 0 0 0 0 0 0 0 0 0 0 0 0 0 0 .4 0"/><feOffset dx="4.0" dy="4.0" in="blurOut2" result="blurOut3"/><feBlend in="SourceGraphic" in2="blurOut3" mode="normal"/></filter></defs><g><!--cluster com.example.AlmacenMotocicletas.mappers--><polygon fill="#FFFFFF" filter="url(#f19lm97qsadcrc)" points="22,24,338,24,345,47.6094,366,47.6094,366,166,22,166,22,24" style="stroke: #000000; stroke-width: 1.5;"/><line style="stroke: #000000; stroke-width: 1.5;" x1="22" x2="345" y1="47.6094" y2="47.6094"/><text fill="#000000" font-family="sans-serif" font-size="14" font-weight="bold" lengthAdjust="spacingAndGlyphs" textLength="310" x="26" y="40.5332">com.example.AlmacenMotocicletas.mappers</text><!--class com.example.AlmacenMotocicletas.mappers.MotocicletaMapper--><a href="MotocicletaMapper.html" target="_top" xlink:actuate="onRequest" xlink:show="new" xlink:title="MotocicletaMapper.html" xlink:type="simple"><rect fill="#FEFECE" filter="url(#f19lm97qsadcrc)" height="89.5078" id="com.example.AlmacenMotocicletas.mappers.MotocicletaMapper" style="stroke: #A80036; stroke-width: 1.5;" width="312" x="38" y="60"/><ellipse cx="138.75" cy="76" fill="#ADD1B2" rx="11" ry="11" style="stroke: #A80036; stroke-width: 1.0;"/><path d="M141.5156,71.875 Q141.6719,71.6563 141.8594,71.5469 Q142.0469,71.4375 142.2656,71.4375 Q142.6406,71.4375 142.875,71.7031 Q143.1094,71.9531 143.1094,72.5625 L143.1094,74.0156 Q143.1094,74.625 142.875,74.8906 Q142.6406,75.1563 142.2656,75.1563 Q141.9219,75.1563 141.7188,74.9531 Q141.5156,74.7656 141.4063,74.25 Q141.3594,73.8906 141.1719,73.7031 Q140.8438,73.3281 140.2344,73.1094 Q139.625,72.8906 139,72.8906 Q138.2344,72.8906 137.5938,73.2188 Q136.9688,73.5469 136.4688,74.2969 Q135.9844,75.0469 135.9844,76.0781 L135.9844,77.1719 Q135.9844,78.4063 136.875,79.2344 Q137.7656,80.0469 139.3594,80.0469 Q140.2969,80.0469 140.9531,79.7969 Q141.3438,79.6406 141.7656,79.2031 Q142.0313,78.9375 142.1719,78.8594 Q142.3281,78.7813 142.5313,78.7813 Q142.8594,78.7813 143.1094,79.0469 Q143.375,79.2969 143.375,79.6406 Q143.375,79.9844 143.0313,80.3906 Q142.5313,80.9688 141.7344,81.2969 Q140.6563,81.75 139.3594,81.75 Q137.8438,81.75 136.6406,81.125 Q135.6563,80.625 134.9688,79.5625 Q134.2813,78.4844 134.2813,77.2031 L134.2813,76.0469 Q134.2813,74.7188 134.8906,73.5781 Q135.5156,72.4219 136.6094,71.8125 Q137.7031,71.1875 138.9375,71.1875 Q139.6719,71.1875 140.3125,71.3594 Q140.9688,71.5156 141.5156,71.875 Z "/><text fill="#000000" font-family="sans-serif" font-size="12" lengthAdjust="spacingAndGlyphs" textLength="102" x="159.25" y="80.9102">MotocicletaMapper</text><line style="stroke: #A80036; stroke-width: 1.5;" x1="39" x2="349" y1="92" y2="92"/><line style="stroke: #A80036; stroke-width: 1.5;" x1="39" x2="349" y1="100" y2="100"/><ellipse cx="49" cy="112.418" fill="#84BE84" rx="3" ry="3" style="stroke: #038048; stroke-width: 1.0;"/><text fill="#000000" font-family="sans-serif" font-size="11" lengthAdjust="spacingAndGlyphs" textLength="186" x="58" y="115.4189">fromDTO(MotocicletaDTO): Motocicleta</text><ellipse cx="49" cy="126.2539" fill="#84BE84" rx="3" ry="3" style="stroke: #038048; stroke-width: 1.0;"/><text fill="#000000" font-family="sans-serif" font-size="11" lengthAdjust="spacingAndGlyphs" textLength="211" x="58" y="129.2549">fromCollection(Motocicleta): MotocicletaDTO</text><ellipse cx="49" cy="140.0898" fill="#84BE84" rx="3" ry="3" style="stroke: #038048; stroke-width: 1.0;"/><text fill="#000000" font-family="sans-serif" font-size="11" lengthAdjust="spacingAndGlyphs" textLength="286" x="58" y="143.0908">fromCollectionList(List&lt;Motocicleta&gt;): List&lt;MotocicletaDTO&gt;</text></a><text fill="#888888" font-family="sans-serif" font-size="10" lengthAdjust="spacingAndGlyphs" textLength="190" x="105" y="202.3809">UMLDoclet 2.0.10, PlantUML 1.2019.08</text><!--
@startuml
    namespace com.example.AlmacenMotocicletas.mappers {

        class MotocicletaMapper [[MotocicletaMapper.html]] {
            +fromDTO(MotocicletaDTO): Motocicleta
            +fromCollection(Motocicleta): MotocicletaDTO
            +fromCollectionList(List<Motocicleta>): List<MotocicletaDTO>
        }

    }

    center footer UMLDoclet 2.0.10, PlantUML 1.2019.08
@enduml

PlantUML version 1.2019.08(Sat Jul 13 14:25:14 COT 2019)
(APACHE source distribution)
Java Runtime: Java(TM) SE Runtime Environment
JVM: Java HotSpot(TM) 64-Bit Server VM
Java Version: 11.0.11+9-LTS-194
Operating System: Windows 10
OS Version: 10.0
Default Encoding: Cp1252
Language: es
Country: CO
--></g></svg>